<mxfile host="Electron" modified="2023-05-01T18:23:05.464Z" agent="Mozilla/5.0 (X11; Linux x86_64) AppleWebKit/537.36 (KHTML, like Gecko) draw.io/21.2.1 Chrome/112.0.5615.87 Electron/24.1.2 Safari/537.36" etag="CJ7U3r3moC9VgjG_yc_6" version="21.2.1" type="device">
  <diagram id="R2lEEEUBdFMjLlhIrx00" name="Page-1">
    <mxGraphModel dx="1434" dy="875" grid="1" gridSize="10" guides="1" tooltips="1" connect="1" arrows="1" fold="1" page="1" pageScale="1" pageWidth="850" pageHeight="1100" math="0" shadow="0" extFonts="Permanent Marker^https://fonts.googleapis.com/css?family=Permanent+Marker">
      <root>
        <mxCell id="0" />
        <mxCell id="1" parent="0" />
        <mxCell id="C-vyLk0tnHw3VtMMgP7b-1" value="" style="edgeStyle=entityRelationEdgeStyle;endArrow=ERzeroToMany;startArrow=ERone;endFill=0;startFill=0;" parent="1" source="C-vyLk0tnHw3VtMMgP7b-24" target="C-vyLk0tnHw3VtMMgP7b-6" edge="1">
          <mxGeometry width="100" height="100" relative="1" as="geometry">
            <mxPoint x="340" y="720" as="sourcePoint" />
            <mxPoint x="440" y="620" as="targetPoint" />
          </mxGeometry>
        </mxCell>
        <mxCell id="C-vyLk0tnHw3VtMMgP7b-2" value="users" style="shape=table;startSize=30;container=1;collapsible=1;childLayout=tableLayout;fixedRows=1;rowLines=0;fontStyle=1;align=center;resizeLast=1;" parent="1" vertex="1">
          <mxGeometry x="450" y="90" width="250" height="130" as="geometry" />
        </mxCell>
        <mxCell id="C-vyLk0tnHw3VtMMgP7b-3" value="" style="shape=partialRectangle;collapsible=0;dropTarget=0;pointerEvents=0;fillColor=none;points=[[0,0.5],[1,0.5]];portConstraint=eastwest;top=0;left=0;right=0;bottom=1;" parent="C-vyLk0tnHw3VtMMgP7b-2" vertex="1">
          <mxGeometry y="30" width="250" height="30" as="geometry" />
        </mxCell>
        <mxCell id="C-vyLk0tnHw3VtMMgP7b-4" value="PK" style="shape=partialRectangle;overflow=hidden;connectable=0;fillColor=none;top=0;left=0;bottom=0;right=0;fontStyle=1;" parent="C-vyLk0tnHw3VtMMgP7b-3" vertex="1">
          <mxGeometry width="30" height="30" as="geometry">
            <mxRectangle width="30" height="30" as="alternateBounds" />
          </mxGeometry>
        </mxCell>
        <mxCell id="C-vyLk0tnHw3VtMMgP7b-5" value="idÂ int NOT NULL " style="shape=partialRectangle;overflow=hidden;connectable=0;fillColor=none;top=0;left=0;bottom=0;right=0;align=left;spacingLeft=6;fontStyle=5;" parent="C-vyLk0tnHw3VtMMgP7b-3" vertex="1">
          <mxGeometry x="30" width="220" height="30" as="geometry">
            <mxRectangle width="220" height="30" as="alternateBounds" />
          </mxGeometry>
        </mxCell>
        <mxCell id="C-vyLk0tnHw3VtMMgP7b-6" value="" style="shape=partialRectangle;collapsible=0;dropTarget=0;pointerEvents=0;fillColor=none;points=[[0,0.5],[1,0.5]];portConstraint=eastwest;top=0;left=0;right=0;bottom=0;" parent="C-vyLk0tnHw3VtMMgP7b-2" vertex="1">
          <mxGeometry y="60" width="250" height="30" as="geometry" />
        </mxCell>
        <mxCell id="C-vyLk0tnHw3VtMMgP7b-7" value="FK1" style="shape=partialRectangle;overflow=hidden;connectable=0;fillColor=none;top=0;left=0;bottom=0;right=0;" parent="C-vyLk0tnHw3VtMMgP7b-6" vertex="1">
          <mxGeometry width="30" height="30" as="geometry">
            <mxRectangle width="30" height="30" as="alternateBounds" />
          </mxGeometry>
        </mxCell>
        <mxCell id="C-vyLk0tnHw3VtMMgP7b-8" value="role_id int NOT NULL" style="shape=partialRectangle;overflow=hidden;connectable=0;fillColor=none;top=0;left=0;bottom=0;right=0;align=left;spacingLeft=6;" parent="C-vyLk0tnHw3VtMMgP7b-6" vertex="1">
          <mxGeometry x="30" width="220" height="30" as="geometry">
            <mxRectangle width="220" height="30" as="alternateBounds" />
          </mxGeometry>
        </mxCell>
        <mxCell id="C-vyLk0tnHw3VtMMgP7b-9" value="" style="shape=partialRectangle;collapsible=0;dropTarget=0;pointerEvents=0;fillColor=none;points=[[0,0.5],[1,0.5]];portConstraint=eastwest;top=0;left=0;right=0;bottom=0;" parent="C-vyLk0tnHw3VtMMgP7b-2" vertex="1">
          <mxGeometry y="90" width="250" height="30" as="geometry" />
        </mxCell>
        <mxCell id="C-vyLk0tnHw3VtMMgP7b-10" value="" style="shape=partialRectangle;overflow=hidden;connectable=0;fillColor=none;top=0;left=0;bottom=0;right=0;" parent="C-vyLk0tnHw3VtMMgP7b-9" vertex="1">
          <mxGeometry width="30" height="30" as="geometry">
            <mxRectangle width="30" height="30" as="alternateBounds" />
          </mxGeometry>
        </mxCell>
        <mxCell id="C-vyLk0tnHw3VtMMgP7b-11" value="username char(50) NOT NULL&#xa;password char(20) NOT NULL" style="shape=partialRectangle;overflow=hidden;connectable=0;fillColor=none;top=0;left=0;bottom=0;right=0;align=left;spacingLeft=6;" parent="C-vyLk0tnHw3VtMMgP7b-9" vertex="1">
          <mxGeometry x="30" width="220" height="30" as="geometry">
            <mxRectangle width="220" height="30" as="alternateBounds" />
          </mxGeometry>
        </mxCell>
        <mxCell id="C-vyLk0tnHw3VtMMgP7b-23" value="roles" style="shape=table;startSize=30;container=1;collapsible=1;childLayout=tableLayout;fixedRows=1;rowLines=0;fontStyle=1;align=center;resizeLast=1;" parent="1" vertex="1">
          <mxGeometry x="120" y="120" width="250" height="100" as="geometry" />
        </mxCell>
        <mxCell id="C-vyLk0tnHw3VtMMgP7b-24" value="" style="shape=partialRectangle;collapsible=0;dropTarget=0;pointerEvents=0;fillColor=none;points=[[0,0.5],[1,0.5]];portConstraint=eastwest;top=0;left=0;right=0;bottom=1;" parent="C-vyLk0tnHw3VtMMgP7b-23" vertex="1">
          <mxGeometry y="30" width="250" height="30" as="geometry" />
        </mxCell>
        <mxCell id="C-vyLk0tnHw3VtMMgP7b-25" value="PK" style="shape=partialRectangle;overflow=hidden;connectable=0;fillColor=none;top=0;left=0;bottom=0;right=0;fontStyle=1;" parent="C-vyLk0tnHw3VtMMgP7b-24" vertex="1">
          <mxGeometry width="30" height="30" as="geometry">
            <mxRectangle width="30" height="30" as="alternateBounds" />
          </mxGeometry>
        </mxCell>
        <mxCell id="C-vyLk0tnHw3VtMMgP7b-26" value="id int NOT NULL " style="shape=partialRectangle;overflow=hidden;connectable=0;fillColor=none;top=0;left=0;bottom=0;right=0;align=left;spacingLeft=6;fontStyle=5;" parent="C-vyLk0tnHw3VtMMgP7b-24" vertex="1">
          <mxGeometry x="30" width="220" height="30" as="geometry">
            <mxRectangle width="220" height="30" as="alternateBounds" />
          </mxGeometry>
        </mxCell>
        <mxCell id="C-vyLk0tnHw3VtMMgP7b-27" value="" style="shape=partialRectangle;collapsible=0;dropTarget=0;pointerEvents=0;fillColor=none;points=[[0,0.5],[1,0.5]];portConstraint=eastwest;top=0;left=0;right=0;bottom=0;" parent="C-vyLk0tnHw3VtMMgP7b-23" vertex="1">
          <mxGeometry y="60" width="250" height="30" as="geometry" />
        </mxCell>
        <mxCell id="C-vyLk0tnHw3VtMMgP7b-28" value="" style="shape=partialRectangle;overflow=hidden;connectable=0;fillColor=none;top=0;left=0;bottom=0;right=0;" parent="C-vyLk0tnHw3VtMMgP7b-27" vertex="1">
          <mxGeometry width="30" height="30" as="geometry">
            <mxRectangle width="30" height="30" as="alternateBounds" />
          </mxGeometry>
        </mxCell>
        <mxCell id="C-vyLk0tnHw3VtMMgP7b-29" value="name char(50) NOT NULL" style="shape=partialRectangle;overflow=hidden;connectable=0;fillColor=none;top=0;left=0;bottom=0;right=0;align=left;spacingLeft=6;" parent="C-vyLk0tnHw3VtMMgP7b-27" vertex="1">
          <mxGeometry x="30" width="220" height="30" as="geometry">
            <mxRectangle width="220" height="30" as="alternateBounds" />
          </mxGeometry>
        </mxCell>
        <mxCell id="wDoNbvHxdQ1cLdOLflLE-3" value="" style="group" vertex="1" connectable="0" parent="1">
          <mxGeometry x="406" y="321" width="309" height="167.41999999999996" as="geometry" />
        </mxCell>
        <mxCell id="wDoNbvHxdQ1cLdOLflLE-1" value="" style="shape=image;verticalLabelPosition=bottom;labelBackgroundColor=default;verticalAlign=top;aspect=fixed;imageAspect=0;image=data:image/png,iVBORw0KGgoAAAANSUhEUgAAAqcAAAEYCAIAAADu88huAAAAA3NCSVQICAjb4U/gAAAgAElEQVR4Xuy9D0wbWZYvXPt5VN5BXYiVrWTXWSS8acUWrTjdajzZxOkouKME0l9isgtOT+JEC2S0QHaAbjWQ3QDzGsjbAP0SyHsBRh0cbeJEHYMmMfMSjJqYGRpHkzZSgqNBdtSJ0dDUbpBLg6hZ5nMpVn/3VtnGLpfBNob84V6VEnzr1rnn/M6pe+6fc2/9xQ8//IChhBBACCAEEAIIAYTAOkDg/1kHMiIREQIIAYQAQgAhgBCACCCvj+wAIYAQQAggBBAC6wUB5PXXi6aRnAgBhABCACGAEEBeH9kAQgAhgBBACCAE1gsCyOuvF00jORECCAGEAEIAIYC8PrIBhABCACGAEEAIrBcEkNdfL5pGciIEEAIIAYQAQgB5fWQDCAGEAEIAIYAQWC8IIK+/XjSN5EQIIAQQAggBhADy+sgGEAIIAYQAQgAhsF4QQF5/vWgayYkQQAggBBACCAHk9ZENIAQQAggBhABCYL0ggLz+etE0khMhgBBACCAEEALI6yMbQAggBBACCAGEwHpBAHn99aJpJGcEAqSpZHtOTs7O2iEmtcjYG3MB3ZyjRk9q6a6c2pylHIqcU95PxUPs1RUkHu5RGYQAQiAGAjG9Pv3YXH9kJ2wk2FQ1QMegkOpshrRdKt/PNk8wHe5w+lNdxWtKj3ZbLneZRsnXlP03kO2nVmOP0fr0DZQMiYQQQAi8qQj8SECwBY/1UnNrv5Nec3dLjZtaz3bZplM8/BKQ8XXMclu6eszYYbVht+x1ZP/N49n9dW/X5Rmt3JC3GQ9JpyxqaNEwGKGQvuYCvzGCvOZ6QOwjBFKMAM/rM+To5dYvTHZyzf0uGMheaOoYcK/VlEKKcVwDcuSkC8zMStagJlRFXAjQricz0QUlW7V5W6OzX7+cN0aQ1w96xDFCYDURiJzhp2431xg5l49v1upz125M6eipbOZcvkiiPqJTLY6dVlP614k245p0vU78vvG8+l1u15p3jt94VJGACAGEwCojIDTDnybTFjfUnVDPXz1mHlnl+kPk2dUEYqu++l/LdZud9b+2ONe0RaXdQ33mO/ccbo93jmFEuGSjXPneh/kfF+VtIcIhsDflwhCHnQ0jF3XiKevlHrP1oYucY/A0iTx7V/6JCsP26NE4Q96/bbpldTg9M3M0IyIkMvm27Xm6YwUaWVy9G8e5/aEILOpWec4twBGuPXe/bW+QtQXSfttk+doxMTVD0QyWRsj+VqnS5Ok/1qmi2VlapXGS8ru7jhwzTmGqygHjCRk5auy6MeiYnKF8GCHZpMzJL/qZQZsZJZ2fcg5cMw/ZHW7IJwBNmqVU5+oMR7TytKXZYu/6nR2FJaZpttLDtLm91fSNk1xQVd8yGkId1Dm39atrllGn63uSXsDwDJlcodJ8dPz4AUWEImPWRnuG+/qGxhy/97BQ4kAcOYDy4+P6d0NQeoxHi7qecCQY25mdOWcwTKSuvdutl2AgCK7qLo1tqei7USIPryVOYDEscRuDPJvujjldYTwrVbsOGIr2ygWkFuGYn3Lc7DL93zHnFEVjwNqV23L1pcV54RhFC0L1l+8/58DS8tpGWnaRNtOXfYMPXNCkxcD41flHSg258iiVxwQa3UAIIAReCgI8ry+W7S7p/OQk543mk+YIRAvvb3ZwYQGZBmN/tUq0DC1xxjbdmdLqw2yzs8bxBAtu0+nKjvtsYDNo5GWbxH6vd9ptB9edm4OnLrafUITaMhxn/2R83vGu+hojWJDAMwhCzNA05X5gcY+Puc7eaNkb5mn9pPVsVdOAB/ZhcEKWKccWvOSU0wauX/fpGnsawgvHACldplRlkzPfeShAJUOuAH0FkTgrI1h62lJf2WrlgiEA+1np2NwM+cQBLmu/paS9syJHoOUXrip+UiL8L1kk6AWv+0Zz2XkHLcIBEMQLmp71OO52Oe5P1F7p1GeG1UPZOz6pN02yaziERJ6V7gN8Ttot4LqlbbjYosta1mWIOfh9CzO29vq2u6zKwkyLfmys/azLwWkS9K02YPOzpPsBuKyWO9UX2w2KpfsWftJypqx5mGTJQlMg/F5q1uMcBpdlpLKnM2AJYsnbKgU243kCFUJkKmQAYFwuXcLI4wcWUErMxkjrmbL6oUWepRjtpTzOUXAN3t7f2NOUJ4tgDFAnLacrm0coYJBEGoHP0dS003bVOfaQvPLLkkVbD1Md92eAMaDih8aymi4nMH6g8jScoSnPuLVr3HbvZM+VMjRPFwUcykAIvFII/BA7PTMefT+YKi3zsQtG3fnj7bKfBJ8suDDxIqrA0hkvxs58sILHlybOvzs/9vk+WNlP9lUav53xBW77Zr7t/TmXf7DJvij7RNtBWLigrDh/T+Hntye83AM+r6O37EOWZ/0l16K8von/U7iDI/7l2CLxP4xdqmCJf1B87Ts+Q8K/X7gu/SN8Yl/LtxEFfBMX9DD//T3FF2zPguz/4HXerClg8z+sGfQKk+TnJkbqWe9PWX5Kywo/OFhzPQjdi3lXXw0rG2Q1xM8PL55dK4VIQD6/fhYEFOB2rYZF9P1/vDCxWJrPWvB3oNKDn9Uc3bGnuOXa4G+//dY+EQD2+WANq4IdP2267Q7WAPj5VROrg/f3fT62qMiZa8XQRHfUWBdrnfmqOMBi59jMf4csYexS6R74/E+O9oYrS4gCeGasgS38095nISESA/aHhGxs/usatr59lf/xbcAYQb3/PTNmrNwHBdxTcyeo/uBbWfhPR3fsK7tkezbPGer8s8HPCyENUNi6iFC0IL47lRyQBw/u2FfRO/aHQOF59+0mPXvnJ4UXnMtrMZZ2UT5CACGwBgjE3Ln3SnVNVpGZqb6uO3BsKCtsby9Wh2bccZm65FyjDswb+8nBq4PsSCosTTtmVHU9jWD+nBue4pKckupCdkJ3anziebAkebv7Ohzly4+1twcmUOAtPFNTwRFfcPYabSsJYKTudJvhzjFJ3pnO6rD5VclWfdvZEjkY5M3Zevvc4bzH+js5UtSjCempnrajQehEhKKwrjQHVkI9dHiC0zb0cHfvI4CETPd5Z/XitDPAzdByrkQB+Jwy97KKiCeRo2PMx509Zwx5u9XqnSpWa4zDeME2B+ZCtHUdDbrQugzg53BDZ5UaFKHudPVNLUGetH3NLtRvLqo7pZEFZwVwmabiF6WQQ7/73kgym/CTAxaLz8Zc4xPQfrYcqT6hDhgj+Jkm0xS3txxTq3JUxIKXJ7PHjRkudFbkygluDoCQ531WroXzQbRjPJ7YEYrEClraSzSZgTkkYouuobUCjvH9HsstB8QQJYQAQuBVRWB1vL6IkGXJZJnwksuk4ldVeMCXZ+SeG3gmkaKgKGpmMk2j2wvcPsY4R7hJ40U5RLL8E3m8FXNFNrc84SWDzov8jRU2gbjacCyKOKHRH4C9BPq+bQXNJDU2PAEbWVm+PjfQBC8ymV2gy4a/PKP2OJxVsqQk+YbDEKWwJFFuYXMoMuhwaPvQGOucCgy7+Xzi2Ud074F7jGNkLF63L4qClHFYh9ne236DbkMENzDzgG4X8OLLuG2Z4fL98dGRoV+ehD4+PMkU21hlk3/gd//4NQn8ThbY+GwsUOHcjJfvbHF1Zbexp7OhUMFjCtccP57N9VaDd9KUqiz4N/2cjKcPqjhUpOatlWTl56lYCg8drjVeoeOJh34iBBACSyKwOl6f0DbcHBi4Ba++SwZ+G7okQ2t7k3FPsg4xY9vW8BXoIBPKbCU7jHzm5rlNsUr1dhSn6emsQ/MxPu4W43KyIyfZVmVoDT7soUAvYcHtmooiFWeG/5nzO9jY49lKpcCiskyhYJ3V9y73wnIUkyb1torFKCIRfxWJhB8gAfkk3lFEBLgFHpIos9neldv5LE6H8fY2fpTitBssMwMklO8o+dzAilWqzTDbM+nmO0de6TRCkhElD5b+FuvkfP6AagWqiJWVNLBx2Rim3K6GOp611P5zm3nUDQMNlktyrnsaUQws8LO/GV8cBCTbtkarUaLczBrbcw+5rLEtxyG6jxBACKweAkIx/KtX2+pSpsmnJP9koR9L5ZmLE59R9Xu93BBpo1QwFAuXSsFZKyQMjwKNYZgzeCs9MDsaThGERkckL8kRnzIe226MqjqYAeLFwIh4C/iZOP8LpJcdmkk3CG8GkG4E7FOYz+sFU99pGEN52IDA8IQTfyOHwWgJkgqRAPFc/MF7ZAXwl4+aAQwACW9VsRsQYiQAM3AYy5PDcKlsE4/G8xkv7DEwtsadOY0x6IPbQOGgGxbzPsZM2cx9VvtD17P/9MIQ/pWnZIHF4rIxjMitazlB1l51gsM02z41t+ESuUqt3q7WaHZptrBuOCqlE+lReRFBkQJ3w7NEUulGgSIEfFcozE9Dm4xDiQIkUBZCACGw+gi8QV7f7+g4XmvjNdTRG6giMA2Oy3FceBkCxDvDBV3G5wODvOgh4NL68TEcM2CrnsDwMfisSByoOgn+wciMHRyLgzR4DAXzfdy2iJm+2mOXebMWwR2ACZIKr2h5XMDsBzeIByPpH8cuDqSIc6wfiCYP44LVEEh4hkSgQxYqmIYtMVonB+rLzlnZE6pwIlOuypYSAd3QnnGwRZCHbnw/VwBsfBUQ6kpjf67lZp/V+o2DZMPpwWW+hBFb8ko//cSQI+z74yMuWEr8lpAOQ8bG2aTgkygTIYAQeOkIvEFePxksxQFvzwRn5XlEgN+GfgiP5VaXrDM90DhuPt7D27q95GMJ3MTFOOyUYL4FYV8WdIVBMZcgnUJS0bUA/Fg+ZQc7B2rY5d+UpzQxGF6CvWjaM0MtuUlRJ83NX0CXj2/WNf7P6rzNYcPV4OEEydBdVWCDDEm26irA5afJSYfjwbjdPjb2mKSfWDtOucmLxtrtqR16B/qaPDQWjU1gsSkZ5NAzCAGEwGog8AZ5fZG27f54ghiBGXwwbGEwdn4YRrxHJuY5nBAG85XSJVYJ+A+FfhPSjSxxyitInP9cEvynyaSsr/POAm8VFTCIYWCNAdYilkrZwAJ5Wd94Gb/awO8EScWgEiNbLIMMzGJeSpjPGI8lkr1xE1ijofwMNUsld2wx+Y3VAUbzIrn+Fw15bBBAWJoHZ9kkmVYVWB5PIIp2q1YHrpO19KSp/pMOO+W5/aXFsH3xEKMkpQh/DPQtAMZRcTA0966A+X+hKJYU1ItIIAQQAqlAYHWi+VLB2ZrQwFVcXNKc6/GUQIWBIDRcqYiO3RMozsvClSo2smzO4Xi6fOlkSoiUKvZQFeb3zgmBuXHP49+D5hlsRRMIuONXl0JSfNLQlareYfl0OtktB6uQMgMhk66HjuQctHeG6yHJo+M0mcdRmzjil2BVgeXYEFA9RmQbqj+G0fvMU1do/2T8XC9ZknS5yagClOspa2yZWXLh1bKoJ1AGQgAh8DIQWB2vT9uajxYVFbJXpSnVjU4qcZLl5rP7jN23+6I20M3ZzOwxbcTfa3clNXyRfZAH94mDTcz/Eb0pn3FeLMo9cKy2x842lvEmxh/uNolde2EN2Oxg3zDf2TGP+m7D3gauytUuEb8WrDiFpKJlITR7d8FZ5tlB40CUw/B7TCdz9x+tauMOmIt+Op4c0ba8XLiATY9e63sS9cCspWp/btGpZkvs7hcR2IHBBqOFpwX35fO3A0z7A6Ea4feXC+xfTWAp8KLt3/lBUcdjgc5UIB7/x+nQQlKanJbbcL9reCLvjTjhb1nOrld4z05KUUDEEAKvJwKRXn/SWF546NDhwFV1fTHyy3HpWCi/6LQlquWOlB7MAT71eKbYa5rfigoBRVubikL0DxU22UKRU6SlJsRS4bGORKfwhSqLyMvUlR+CPpG8VV9z1UEF2zJm2tb1WbMVOGRcUXQyP8mAKFlB+cfwZHJqCIaJudk4dphoj+1SVc1VDzi8lk6Xx0VcFPBK9EO7naXDsBBJ8ioMW0ANtK29qms09KlEhnpgqvk3MwnEySwo5++n55jg/5tCUnzSoOe0t7z0Xcin43xVfb8zDGe76XRVxyOamiLfylzJx2lxdUmFBnTOGHfXZ1WmB2FQPDLXV7TaKdozDTY7RLMWyJG/y+7J9zv6vrQH2WOox5a2srK+tJMl26HrZNyuxQ/ugM0LcEmIcY3aIc6gQyDgeSHxVQRWolSk0wzjMdXVGEc8ixtY/OBk/o7Wm/D9lWhyt0UtXcVEIa4bhIQy1TRaQvbMzNo7znSzR1MoCv5hdeI24mIMFUIIIASWRyByXZ/xPpsKnTET8TBDkYs3CP6wcvl6linB+MA232mhQn5wSHioOsKbXBy1EOFgHqH+tLN2tqxtlLJfLN9/WSL7m3Txn70zJLttK02ua2yv4B1pshQ13j1cdaqz0VvVdNfj7q8/dqtJshGcWeTzPqfYOGdcUdjScjSOcTikKlNvl2OPPdi0uWqvGQTxEYe7h06rAY2K1kbykybrlNP46SFThmyTRAw2yoEPAsEKZNq6L6rVcJQdR0ohqejaRHJDazv583rzE4/1XIn1PCHbSGA+mpxllYvL8k53rgBntr4NupYvKHgOP2nvOHWoi5BIM8S+ueAGvA2a6i/qNEtAkWOo2D3YPEp7+qsODoMz/MU0gJFiQHBfyxclcus94wM3Nm0qK7DLVUXt5/QyQq1R4fZxhhquPzRSD2TQng37HlI4AqsIrEx/pm78VKuNtHfV2LvAbhEJ2Hbg81KcgYHPWZW0nGJng1KYRMojnyrunW0+NtwqydyU7p+HMEF7JtT/0mLgh0SksGJECiGAEEgBAm9QNF/SaOBy/fl+9VCfCXxzb9JDguVJ8OGVLNW2nXlFHxcsHtKbHH2RLK/puirPbLplg9/cew76TjixUb5tqyb38PGCnASiBBUlbQ2zzV3DTsqHiyWbtsmDI+PMvJarqvx+k2VkbOIp6XmKgW/ZgZOBduXqigrj+5ZdSLQUkoqGS6KpvdafF/zmHgk6cxzO27W6j/Wa6A/0RVNYLod4t6S7XxP65h7oR8JP6GxVqnfrDACKJVw+pCzTnbtOXO0yWR2uadK9QEgyt+Ud1pWeyIPfAyxsrJ1s6h5103+aZ/B0duUaeNyWqbMdg05wnh2oRqlcYqpi9YDN1LVdV9lu9VlHHa6pGdDHgQaWIYdfGtyrO/KRSpLigT6U/K33qq9cUV42mkfGXfAECPDBya27dMdK9TuFz41YTm/oPkIAIbB2CPwFOOt/7WpDNSEEEAKvLQLM3ao9jXYGfFP419362Gslr618iHGEwLpAYHWi+dYFdEhIhABCACGAEEAIvGYIIK//mikMsYsQQAggBBACCIGkEUBeP2no0IMIAYQAQgAhgBB4zRBAXv81UxhiFyGAEEAIIAQQAkkjgLx+0tChBxECCAGEAEIAIfCaIYBi+F8zhSF2EQIIAYQAQgAhkDQCaKyfNHToQYQAQgAhgBBACLxmCCCv/5opDLGLEEAIIAQQAgiBpBFAXj9p6NCDCAGEAEIAIYAQeM0QQF7/NVMYYhchgBBACCAEEAJJI4C8ftLQoQcRAggBhABCACHwmiGAvP5rpjDELkLg9UaANJVsz8nJ2Vk7FOPLxMmKRw9UAbo528vN4APZr1Sas5RDkXPK++PizN6YC0sfNS5+6fyVEgcx85ojEPObe/Rjc2tLh/Vp4M3UNI50Hlrmm2UpgIJ2W6+bLeDrYd97aR+DZ8iUql3aw4aUfcuLIW1fNrdedQQ+oJ5pMPZXq1bho2QpgGKNSdBuy8179JYCw+44v/y7xvyh6hACYQggc0XmgBBIFgEhr7/gsV5qbu130vCb2WuXmKfmmp+32WcXa2Qo0jlido7cHjzafvFTjWRlvFDjptazXbbpFI8wVsbUK/O029LVY8YOq5HXf2VUghiJjYCQuRI5pW1n8xmRRLX6w5PYnKXgjrKooUXDYIRiiU83p6AaRGK9IsDz+gw5ern1C5OdXHPXuODsqotw+WEaYdw36pvk1zsPJzsMBSODC00dA256vap5WbnJSReYfFxhv2rZWlABhEBKEBA2V5lKK1OlhP7LJSLZqs3b+nJZQLW/yQhErutTt5trjJzLxzdr9bnJetnEESN/3W2eCjwmya013r0//mBk4LxBkcZl0vYvTY5kuyKOnspmzuWLJOojOhWeOH9v+BOMa9L1houIxHtzEEDm+uboEkmy9ggIzfCnybTFDXUn1PNXj5lH1oYl0mYN+nRC+8kZvSoD1IvLdlfXFdpLrrJBLbODlt9Vq3cn5bHZpQpiq776X8t1m531v7Y4k+1AJAUH7R7qM9+553B7vHMMI8IlG+XK9z7M/7gob0vEXCRzt2pPo50h8jqHWzQLbsuXvebfODzPaUZMyLJUuw6VlhcKTF4yUzbTdcu9cZeHpBgMJySblO9p8oqO696Na+juOLc/FGRE3SrPuQWR156737Y3JGu8/C8Bju30ztrh2KCL1A1D3Tqo9GDyU86Ba+Yhu8M9Q9EMniaRZinVuTrDEa080BFkS/qdHYUlpmlMVTlgPEyb21tN3zjJBVX1LaMh1GVdIO23TZavHRNTkBSWRsj+VqnS5Ok/1qniQohjKV4QQChW1V0a390wdH6X60prx1djbgrTNP2m88Byphsnn35315FjxilW5BMyctTYdWPQMTlD+TCo+pz8op8ZtJlRdcWJZ5gGIv6MB+c5t/Wra5ZRp+t7kl7AQFCOXKHSfHT8+AFFfDPutGe4r29ozPF7D6snaMlyoKePj+vDLHkJcwXRfLlNdkykrr3brY/QbNy6a8qtGqCxnQ0jF3XiKevlHrP1oYucg+Ynz96Vf6LCsJ1nMZBn090xpyuMZxCLdMBQtFcuILUIx/yU42aX6f+OOacoGgNNgXJbrr60OC8cI86EsC0VfTdK5KwaqP7y/eccWFpe20jLLtJm+rJv8IFrZg60DIAxdf6RUkOuPErlsXSJ8tc7AjyvL5btLun85KRGBk1oPmlwQMzq/mYHFxYQT8Qc7XS4g5Vla9Rhrb9qt1py1QMmnzGMdo67sN3JzOCJM7bpzpRWH2bfrLUNVsAW3KbTlR33WQlAOybbJPZ7vdNuO7ju3Bw8dbH9hCL0uuK4GBbzMTRpa/6k3jLF4ARBpOEUTZOTdvOk3eHpNtaow1oTxtNfX9VuI6FQuEQmTxfNz5AexxC4LJYTbZ2V4YUh7eiUDiIms8mZ7zygy4BlyBVA9SJxVkgFifAfTTyUI86QSiS+qAIMDVoulvmIW5S945N60yS7IENI5FnpvrkZgIAFXLe0DRdbdFmh8mKc/dO3MGNrr2+7y+IcHp45bamvbLVywRwA/qx0DJB64gCXtd9S0t5ZkSPQOEcwA34kAgIuhgwxCz7PrabaS3ZWhjga5Pj5FOF/ydKjF7zuG81l5x20CJiJmHhB07Mex90ux/2J2iud+swwIRLAky968PcyONOPjbWfdTk4MweGuAGbnyXdD8BltdypvtgemrSLQd9PWs6UNQ+T8DYQRyIj/F5q1uMcBpdlpLKnM/iaLGOu0eQT0h1nTIzPO95VX2MEK4J4BoCWoWnK/cDiHh9znb3Rsjfk+EnrmbL6oUWepRjtpTzOUXAN3t7f2NOUJ4uIFAbUScvpyuYRCjQFRBqBz9HUtNN21Tn2kLzyy5LFhiBKCpxjDKj4obGspssJGAN8peEMTXnGrV3jtnsne66UoUnMKOBQhiACP8ROz4xH3w+mSst87IJRd/54u+wnwScLLky8iCrAy/j9hYPB8vv+/duIm96bi6R+fjsRJmJU+mLszAeJ8BaDTHzZ82Of74OV/WRfpfHbGV/gId/Mt70/5/IPNtnDZLKd2QELF5aV7tnzTxcG3YFbvpmxC8fhnfd3lN2cWax5/rdNLG47DtbdnPAG8+efDf6v4j2w9J5KSyh3SX5fuC79I3xgX0sk+D8kyP+SlUTfDPL//sF/H1tE4cWza6WssHuKL3z9LJjv8zqu1RyE2e//44WJIJI//PCs96cw7+BnNUd37CluuTb422+/tU8EoPZNXNCzjwBStmehh7zOmzUFbP6HNYPLI5QYCN+2sZo9XlNTsGNfxYWbX499+7uxiTCtRePwQ2J8BkTeV1pW+MHBmutBu3ox7+qrYeuGelxEKDE8Bbhjs5bE+flgzYew3h0/bbodNNofAD+/aipkNbnv8zD9zlwrZo22xrrI48xXxQGVd47N/HeAB2D2l0pZQ/7J0d7vwhiLYa7zlkq2cNnNRZ0mpruJNtbCCsqK8/cUfn57wstxCGyvt4wV8H39JVewNZv/uoZlbl/lf3wbKAh4/O+ZMWPlPijgnpo7QT6C7WHhPx3dsa/sku3ZPEcEvKqfF7J099RYF9+AsQaW8E97nwWF9t2p5IA8eBAYVe/YHwKF5923m/TsnZ8UXnAu4hlLiygfIQAQeDX26z/3eoND8PSM9IjeCSElQv3l5zOhYoI9mFcuc6qv6w4c/sgK29uL1ewECky4TF1yrlEHpqD95ODVQXawEJb8HgeV33axOjT/j8s0FacK4BCDmRh/xI4eQfK7r12ygFE+/m5F51n94mQ1Ic/7tL0uFwxhafvla86VzG0kx3+4LEv8PWttPsvyv6WkpVITGnHTw929j8C0g0z3eWf14jQpLskxtJwrUQBjmDL3sqiGJ3J0jPm4s+eMIW+3Wr1TxUFN3ek2PwWlJHlnOqvDpkAlW/VtZ0vkgNScrbcvNMsUg9cEQRBj7ISNe8whqei5WK3fq1Fv16iWjJBJjk/q0YT0VE/b0aBdiQhFYV1pDqyceujwBPWeHJ4xsMCEcGYcxgu2OTBRpK3raNCFFq0AP4cbOqvUwOqpO119U7FIgnzS9rULLv9sLqo7pZEFV3Cg2f+iFGrc7743ktTe9QR1F2Bx2jGjqutpBAtA3BsLbK+kupCda58an3geKOUan4Cv4pYj1SfUgYLgZ5pMU9zeckytyqWlsDEAACAASURBVFERC95A0eB/HjdmuNBZkSsPtGngVf2sXAtNn3aAiczlE0ViBS3tJZrMwOtCbNE1tFbAMb7fY7mVdODT8hWjEm8SAqvj9UVgHVomy4SXXCZlW8GlEvPnoCcDHlEcOeMqEhOh5//8p8VyS9F7Ve55Ru65QeMrUhQURU2+pWl0e6ErYJwj3LxoONOqwwbe1DyerVDC3g8z4w1i4B4cmQI5hPaYHjqwiCTJK8yHvQTSZnvMu5XAz6T5X74Ov8fc2GoDvjtNVdFcoVpcqqftQ2NsYwpODoi0BGAb2Ud074F7jGNkjO/2RWrDMR7I1NjwBPQlsnw97ANFpuwCXTbM8Yzal/YnSYLgF2sE9MLngv2dLJ+SfAN/V4tEuYXtX1Bk0OEki6cgpyAzGmfGYR2G2pDtN+g28B+THdDtAspdxm3LDJfvj4+ODP3yJPTx4Umm2AbtGCP/wO8b82sS+p2k7kSy/BN5bLWLSZHNrQ96SZ7lzc14oZGFJ1xd2W3s6WwoVPBvaI4fzw72/bl7aUpVFvyLfk7G07gpDhWpw+NawJNZ+Xnssif90OFaSRefxyv6+eYisDpen9A23BwYuAWvvksG/pschabvBRZ6ccR8Bxa2TPsCi14ZjiL26mQw7knWoWRs2xq+yBpkUJmthA0A88zNdztgpT1qbJgG1vHgk2DBmCNATbrheE4kVwquB4JeAqROukEsWZIpaf6XrY9xX6nvGAetHKH5pMWwOay83+VkR33EOwoujimSlkSZzXaV3M5nvAbu7W380Dz/M+d3kBSerWQ7TLwkUyjYhv17l3uBfy/sd7IgiFTq9yLb91iVJM3n2ypWxRGJ+Cu2f+NjAlaSNJ58wsHf0ThPu8EyM4BZ+Y5S4CFCpWL165l0850jr3QaIcmIkgdLf4t1cj5/Eq9+sroTq1RvR4mSnh6JLKbcroYGNGup/ec286gbhsUsl+Rc1yGiGFjgZ38zvjgISLZtjX4tJMrNrCU/95BLWfJyzKH76wYBoRj+tRf+RzDeiTN6X3R3NZTzI27ydO35gzXS0x7yz5EvJjulsbgAwefL6+VGARulUgGvg+FSKTiFg4QRQIBsWHsnAqsafFpYlOje5+xwDgRXH8rpiC4ezJmBxUCjQJNPSf6xSz+WyjMX5yajaCTI/wLl+Z4/7MEz5PIN/KacHu+o/xL6AMn+hkbeaNVHzYC5YsDurSp2N0GMBDADDVwYSrhUtolXdoHkpkWkG0JLKxElpBsB/BTm83pBjbzx02LBBEEIPUhIhZQoJE6yfMJITyF6EXnJ4hmLsADOgXU3xta4M6cx1nMYA4AE8wEx72NgK4q5z2p/6Hr2n14Ywp+ClKzu3koXeKlB+H1kInLrWk6QtVed4BjTtk/NbbhErlKrt6s1ml2aLbyZgsCT6UTk8iWXLdQ4CEsvkko3CtwBtgYt2U9Dg1/eJgQooKx1hcAr4fWJt+A4lnvRGR8cOCwmv48O9fLfClvjX2stUYNni9rGI2sV2CMUXiA44AqE5kdxDOJywQvvZ3w+ICG/TYkqzc9gnwIJBDwTSzxM4Gwxv6PjeK2N15aGbQ3iU4e/E+R/sresjH8CuqSwe+i0OoL4nK21yQxnKbL0Lae1/NYRjFG5Th4Y+f04tlhiMX8vRiDKOawqMHhiSYlBYaEUzA/WKFQmYRBCRLhQfmGakbkr4DM2QMEqksYzFufROIcMMUMi4CxDdNKWmqgjB+rLzlnZs8FwIlOuypYG1/VozzjYihmLm6XzEzTgpYkJ3CXUlcb+XMvNPqv1GwfJhtODy3wJI7bklX76iSGHb90CNBLLEr8lpPKQJXMGnxhJVHr9IfBKeH3sr2VgNMyNROepyA2Dc97QCBX/a8lrdUSlmNuIhzHB6VaeeTEM67rwWG5paWsMPCXaVn0zcqf70o8lcHc1+CctZ5utJBBaUdJULbCtEIABe0KY7GDnQE0yuzQX5QN+lyXlC66J8EQPequgmMLIrAYIkTWlhk9h7qFxpQrPGDVgaTASB+xF054ZasmNVWjJfNLc/AV0+fhmXeP/rM7bHDZcDR5OsOTzsW6uvu7AfNVWXQW4/GBvrcPxYNxuHxt7TNJPrB2n3ORFY+321A69Ax1ZnsCLlhz/tEEszFD+OkDg1fD6f/t3cjHmYXv01DTYnc8umHHJ4w6t4G7arEztO5SIfiX6nnF9Ig9gGJjBBz1zBmOnQKMC7jAG7FyABAnpErPssWuUykAXCEQEeGdmQehA7HLcHZG27T5vpmK5RxLlP6d2aLx2aaKeG80dI3AWUv0vLRW8sCbuSbFMCmSZxbwU8AJRIZBLU+fdTZPBOXYK884Kk/JyEW9iKawxZlpdJcJqU8NnDAFSiGeMGrCNm0CXnfIz1CyV3JnO5DdWB3j3RXL9Lxry2CCAsDQPzrJJNq2+7kKcgcW+rVoduE7W0pOm+k867JTn9pcWw/bFw6KSlSLsOdC3ABhn8inRXEMC5v+XsmT+U+j3ukVgdaL5EoUzTZ2zNTh15RwZA24skBjHaCjCXaLeHoyJ9dPUlMfDXWTYGuACRQbz4Tl1LznhKi70Zs71eEqAlUDcGq5URIcOCRTnZ0ne2Qp7Ev6Zxw/B2Hk1Uor5Zya76v+PA/r83dUNR6ODklgRRHLVO9ASGKeTjb9fQRIpVWycI/N750R0sAjmefx70IKC3WICMXFhtaYYBAF5UsOnAGGYlUI8Y9SAZW5Vss7G9RAqN4nknWF7v2J5dAwd81hgh0vcVay+7gTsCiOyDdUfw5aKeeoK7Z+Mm+elC5Iud/TLTrmespacmQXGTighBJZFYHW8Pm1rPlpUVMhelaY4TF/y4Ue7AuN4xtF1zuScBbPftGeoo+1W0MqzdOyuLTZRg/VHQvSvhegz37QWcpUWFh275FhW+NUuIMvNZ7fSum/3RW2lnbOZ2ZPIiL/X7kquh775w9wsQIBxfGWCQ6XIRI82H8o9VHLG5Iy6xS8a9pvxR3jaVPJPOzoajTCEb0Newxl4VEGMRGj2spYwO2gciGrg/B7Tydz9R6vauAPRYpAIZhO79sLN4oBU3zDfHzGP+m4/BfdwVa42NjOQUipBEGY4NXwK0wa7JFKGZ4waRNvycuHcHD16re9JVJlZS9X+3KJTzRaItnAiAtHxbDBaeFpwXz5/O2AEfrAexk88c+XfXlXdUaCJ27/zg6KOx9F8BePxf5wOzS+lyWm5DTcDhyfy3ogT/pbl7Fp2t1RKeUHEXlcEIr3+pLG88NChw4Gr6vriljLHpWOh/KLTlqj2OFJ+MBP1NDgWn+a/y4JQSfaXHw8O96nRjpIDO3O25xadMXu4d0ok0VUeT9amaWtTUYj5Q4VNtpAjJC01IXkLj3UkOgUuKEl4Zqau/BD0KeSt+pqrDir4ujLTtq7Pmq2gg44rik6yG+uTSCLF8VM6eOTntLn20y7bVLD18dPuu21lv7CQNOlhpJtiRqeHVSkKNLz0Q7udDaFnOIhSxj8Fjss1T8Ghp6GpLiqEL0J4Ym956bugtaQd56vq+51hoNlNp6s6HoFpHvKtzLgCPCR5FYYtkJStvaprNPQdSYZ6YKr5NzM8xjizoJy/5T1KEykDIYpyMCM1fMYgn0I8Y9SAq0sqNKDnyri7PqsyPQjD+ZG5vqLVTtGeaUy6IcbTGCZ/l92T73f0fWkPqpuhHlvaysr60k6WbIeuk3G72B2dbIplrsH7i/+vnu4kSkU6zTAeU12NccSzuDsGjFWGO1pvwpZTosndluKFdkJCmWoaLW72JQWJmbV3nOmGQwpcUfAPK4uDiUYP5byhCESu6zPeZ1P8UygC5kWRizcI/sgpBeCI5CWtLTMV8PB5PjWRRFN1sS7qzBZ+sZi/GR/YyTotdBusFEyHZCG8iQyLhchF5xHqTztrZ8vaRin7xfL9lyWyv0kX/9k7w61KpMl1je3Cy9vRlIRyiN117Z96K8/bqXFjbaERnl6exh73wUJIvFvSdoZ/2IgQGZAnU2+XY489oANRtdcMguCIw1zsfYr4J++ZhthJSGzGcqZwUIAJ8a7T/Q257NAI9Axa28mf15ufeKznSqznCdlGAvPR5CyrKVyWd7ozXtBwRUVrI/lJk3XKafz0kClDtkkiBnvZwPdUWEraui+EIgr57KUIBD7ZsN+p4TNGBSnEM0YN2AZdyxcUPIeftHecOtRFSKQZYt9ccAPeBk31F3WLhy9GE8kxVOwebB6lPf1VB4fBGf5iGuiIYkBwX8sXJXLrPeMDNzZtKiuwy1VF7ef0spjmGk169XQn05+pGz/VaiPtXTX2LhEhkYBtBz4vRXGB9MTWkpZT7FRTCpNIeeRTxb2zzceGWyWZm9L94KMbXHUwUCbi3IsUVopIvXEIvBrRfBysG7QNV69rbsLPozmngOvCiQ3g83G5eceO67ID0/+vH/64XH++Xz3UZwLf3Jv0kGAFDmy1y1Jt25lX9HHB4iG9SQqGK4509ufY+r7ivrlH0nOAvEyRo9Ls1R/5SCWJe6ihKGlrmG3uGnZSPlws2bRNHhxMp4b/0DwE+FwI5/55AuPeP4flSDS11/rzgt/cI0HPjANtu1b3sV4T/UG5JdDLzGu5qsrvN1lGxiaekp6nGPh+mmyrcleurqgw8vN9SxBJDQhLVABmHVLBZ6waUohnjCpAF7O7XxP65h7oZMNP6GxVqnfrDADnZV5fme7cdeJql8nqcE2T7gVCkrkt77Cu9EQe/L5iYWPtZFP3qJv+0zyDp3Mr1zHNNZq91dNdpq7tusp2q8866nBNzYA+Dny3wQEV4EuDe3UJvX3RXMfKeeu96itXlJeN5hHwjU0QugQ+Brh1l+5YqX6n8KEUseig/PWMwF+As/jXs/xIdoQAQgAh8IojEPgGNzgg5Nfd+thrJa+4FIi9VwSB1Ynme0WEQ2wgBBACCAGEAEIAIRCGAPL6yBwQAggBhABCACGwXhBAXn+9aBrJiRBACCAEEAIIAeT1kQ0gBBACCAGEAEJgvSCAvP560TSSEyGAEEAIIAQQAiiGH9kAQgAhgBBACCAE1gsCaKy/XjSN5EQIIAQQAggBhADy+sgGEAIIAYQAQgAhsF4QQF5/vWgayYkQQAggBBACCAHk9ZENIAQQAggBhABCYL0ggLz+etE0khMhgBBACCAEEALI6yMbQAikAAF7U24OSEe6+J8/XyHtaVPJdkB3Z+3wCgml/HGP8SiUeOdpW1ykX11B4mIfFUIIvDEIxPT69GNz/ZGd8LVmU9XAKnxdNwxFeyPbaAbS/ub7gtVR5rJgkaNG+AnrdZzIUVPXZYs79V8HXseYvmTRKUe/0djvEPwo4UtmDVWPEEAIvCkICH1pd8FjvdTc2u+k/S9LSsrSeU2/vUIR94diXxajL69eauxGh/GhWnpIpwBfI0XpDUBgYaLvYpftb0o0h9WLn0iWaMqbpOATrjLVay7hGyPIa64HxD5CgOf1GXL0cusXJjsZ/CD6y0Loqamjv6D7iOxl1f+q18u4nN+96jwi/hJD4KnTFT1zkyZX75cnRufVLP3GCPJqwou4QgjEjUDkDD91u7nGyLl8fLNWn/sSnS7j+LLDiuY6Yyly2u0RXAOJVR7lv/IIUG43+coziRhECCAEXncEhGb402Ta4oa6E+r5q8fMI2suYIaEmKOgR5uzdX3p0J5W42vOAkM6bn/VN/JgwjVN0QyGE5JNim2a3CL9YbUsnBu/u+vIMeMUpqocMJ6QkaPGrhuDjskZyoeBJ5Q5+UU/M2gzo9j3U86Ba+Yhu8M9A6jjaRJpllKdqzMc0crjmaunzOUH2hyBxRdH24GcNoDPloq+GyWhIWG8/C8BbIRohLu/u6vvnnOKokWE7G113rHyk/vlQDBm2na5x2R94CJpDM/YtE2jKzllUEv4dOlJ67X+QftDF/mcxTNDJleoNPuPHz+kIMLLxo8nbas9VGujMeJA51CTJgpiDJs1lxe0ORhMXny975SCz1DwN4gmqbpL47sbhs7vcl1p7fhqzE1hmqbfdB4IklyhskBFsw7LVxbr75yu7730AoOlEbIsFV/dw7UgJi4wvfbUeGy7ETwnKeweOq3GQBBcYYfTj2vP3W/bGyEH9dhys89qf+TyPA8YqfwdtfZAkT4XqiaUmLtVexrtDJHXOdyiWXBbvuw1/8YBHxFDTnYdKi0vVEVoAcMi9OVn7T9rm1qrMxRqIuyfq4Ndhosw/oxNyu1Rxh8tiN/RdrDcPIspTvVdL5Y6+7t7B8acUyTtw4mNctUHutISvSrKliIgQD8QAgiBxBHgeX2xbHdJ5ycnuZd7PnFygSfmLOX7mwOeKdNg7K9Wxb9Cv+HD4zn3uobhMJ8c6DD9w/WSLUnzkcyD1Ehb5S/MXJQcLpHJCWx+lvSM28Bl/pWu5X83aDcEyYrwv2TbV3rB677RXHbeQYtwghATL2h61uO42+W4P1F7pVOfGcYGZe/4pN40yY7TCYk8K903N0NO2i3guqVtuNiiyxJwYRFiiKTyrYp5inRPAyK4bIuc+BEmzpKIg4US4D+CbuSPMNEcF2uqrrqZNIJIwzGaJidtxjMTU9iNFvlgVUWHYw4nMsTgBkN5HAMdE7/39lypVi12Xxj3jarKTgfFdlNwiUQmYryA+Qfgslq+abhyTicL2Ub8eBK7dHsltlsU/Y3FNqfJy+BLQo2MTAAvKlLkfxTT5UN+AOOg77Lg89xqqr1kZ7UShv+KlUWPd5XVGN0cXUIi2YAxcxSn7sE7upZfNmg5r5aRpdyqoMH8zRzESP62FMfEUlk6X6rF37Sjp6r2sjNAWCbfJJr3Pvc4R8B127y3rvOsTh5EFcdZ0/AxNGlr/qTeMsUAGwWqpKAq7eZJu8PTbaxRBx0/47lZU3beHqYvjJ6jPI9s4Lpt0bf/slYTibZYjDmvllddDBg/DowfWIKg8fPlEXOs0bTH1lRVO0Bi8PUhcB/gzG2/2WYfGW+53Jb3Eicc+Qyj3wiBNwGByBl+ia6hvUKoP7+Gov4J21pWqubcBuO+3Gkm17By7KmphnX5+BZdy42R+0MDff0DQyMj15tg0Bzz1FLfKMDP/Hh3fc+M+tPugW/ujwyPjHwzcv00257P2XuvggFnMPk9proa6PIJleFc38jIUF9/38Dwb4Z6qrWgaQON8mddzmUDKjK0tZevX/mZCnon0TZDx/XrV68bm3SBtjEp/pcAeP5BR/MdsaF94P7oyMjI/ZEr1RooGGX7srX+f/TO5NQah6DI978Z6jyhACwxT829v2GdEZcmL9ezLl+ys6L77v37Q0MDd0fuD/e1FMLC1Ehr64DAKk4ceOKaQ/mwu0CPWUaiKZD3voaw4+/p8rKWEC7o4hfGTVcd+HZD7bnO7kvtpe+yjn/lylpwdDSyLl+mrb0KYBoaujsEbeNMHuCcmbK0ngezFWzKqTBeuV69m/W8mbqWK0CnRoAndzP6X2qgnnX5uGwvi/9AX9+toZHhgbYTYNTOkMOt9T3uRTsSBcSxfN5sI/TQqoHljdy/P9BpyIa3PLeMg6F3bPZ2Wyd0+bIDDdeHxll9QZ77zpWoM6Bymy7Z+Rbq6q2/PKOu7B4AhFlLMNZoYTQiz/ijxcDEGNs1oYc7mofFujPXh+5zFAY6T7ETRrO21i8s0doVoISyEAIIgbgRiLlzL24KqS644GMy9dVHA00e86C3ayTMi6S6tkh6tM3Y6wQRVWmaui8a8rYExz8iQnGgof0UXGtgxntND/jtHvVoQnqqp+1ocP4flC+sK82BtKmHDk9wKwQ93N37CDwr033eWb0XTCJwCZfkGFrOlcANC1Pm3jsraeWS5H8JUKnHM6rTnRW5gZldYquh+jC7kjBls2FF7WeDc7C4RFNWkQ9HgYzroStE0D0yAsUXqUvrS9QbWPcDEiHPq6ljp0AY+/C9aIHjwnOrrmAzpOAYWPRZAfqkzfoY/Imr938Y6AwFbvD/EwPHA5J7zCGp6LlYrd+rUW/XqNhnVq4s5pF1DMpGaE816LOhF4MJ2Mbhxrr9UPnUN1ZHdPheoFzs//zO3stwWgLPPtkZwh8UBwtzle11uYAy4+7vDXYognT8HgeV33axOmTVuExTcaoAssVMjD8KvGKMc5ydI1EbqnSKIMuAZ/neirbTOtW76m047Y1kjX7i2QSM/4RaxvXURRLVEWD8UNfhxi8oD2cQNOlVnupsOKwI7FwAnBW3NR6A1dN2y+C04KMoEyGAEEgSgdXx+mD1N0smy4SXXCYNTT7HxSPrIxUnqvWBBpuyXuxdfgQcF+nlCi04bOw5AcQHuvwodyHbn8eGGFD3Rhe9WoCiJN9wmPeARLmFzaHIYCtJ24fGIPUtBQZuVBfGDp59RPce+M04RlhPkVxKmv8lqpN9qI/kdpMCDtNBUv2/BRFbK3G5Igvm0xQblsEmsGQ7/mBk5G5bQWhZhLshUqo4MiQ5E71BNC485Xk6dsJj0mJ9GqyP/Z8ctjkBTWJX/t6Q44oowP/hF2uO6UNT4uzdFCgL39kw9ACM8Psb9gY7eIGKcaVKCf/0eckklP3YOkaCh3H14cVp/KBEEu1BLayMdoyNA+8dkVSHDaF5fO4Gnq1QwtE2M+MNaYy74/VGMUbsbTBe7m6riZpxF1SWQgoJLRo/j5fIn8SuooO814fQfPQhVJ7f5XjI421JUugmQgAhsBwCq+P1CW3DzYGBW/Dqu2RIZtt9mrq0jG2/QJo2d1xfkyN5vndxy/lK1bbgsDQMvwyVAg5PMeqpi98kvq1SRj1A/BXLvo/xcTT8LqcLNsTEOwqhnVgSZTZs+Bi381m0FwzjYqk/k+Y/NlH8bUWkO8TwNDErWLBbs/gsIWZHe4zPF+FwRAQhIaLgwcVpbG9QUNh48ARzJnt1cCXI77ltcYZJ4LEOw5+g6xY0oLCbgn+KVOr3IhlMmbJAJJyECC6xhyoHy+psfT5GUHxBJoOZlNsFnb5ok+IdgT4N/g7nyGm3m/fKyJTcJEY4cRCrwSoBRDZw2bhKw0FqrC7vuOWAcQbLJoWK7XxFJLA8D3+HjJ9/P/K3ImdbdBzr24q/Y3sknikoLkoIAYRAqhAQiuFPFe2V0ZEcqC791VgHnBJnnFc7LB916njjxaXpL1Ce77288Q6eIZeH5pmjH/8v0gtbYVyyQaA9xTDpJjCAAcNKrxcUWzxHBTwQaOSiKYbl+KgZtg2lb1Xl3IpdkvZSYNYXLM9SHg/FZ5/4G7ks0BUSopAg//S0h/xzZBXsJE2El/ox136HVSdiHYUo/a3olvpHoPnn8QzWd93WWxab3eGaAkNKJh4/FxeegAeJVvdBh32IJoctjn9RBTZ7TI3cc8N7+Yfi3v1BSKU8VBNUlpAy2DywBeDOTctvxp0uz8wcED5mwfhvzDznJo9kmwRfhwwpDOxcwLwUKBYWGSAi+DLCKqOm4TboGhudZU0Wz6zDdNZhOodLFGr1u+pdGo0mRx7dfQEkcNB1iJ97oZK4RCrwvmUQnCD0XKQgQhRQHkIAIRA/Aq+u1wdjOX2V3nLSBBeGaXtXj13bqBRHDZtiijrZW1Zm5g3KA7uhYj3DcONyMQhLFkxiGPLNYIFiEUWiRjtRBABtbmCXRkh+HLs4qJstNtNXe+wyb7gmsH0roprE+KcGzxa1jUfyKVLX3u3WC7TBUeLEl8E8MdX8vMPOqgEEp8vfk0rBRgA20S67czYmldgAhT9C7DqklQxZqFmbxV6thkvamGf4HjwJPzM/jzd8j1kV4IwN5Q9PCSpLmDbt7KqsMj5mJ6jTJHKFWvZXwXr+y2V/wrNNYRrRuT4fOy4XYVFMc2VZIwUdx8DoPZrAMjmSvQ3Xs/Nu9/dZh8ecJENN2q3gutGBSVS6n9VVF0ZutlyGWFy3xWmC3YagIC/iIoIKIQQQAnEi8Cp7fQzfWlr90WAVG+ZN3enoPdyj5PxunMIlWgyH850MFmhXo54OTl0H9kJF3V86AxfDLguIjj7YOVCzOserrir/S0sneNfvvvw/WJcP9iw0toRCArmy4HM1K/+4A56jz8+ymKZo2107nZtH+D2DX8ORvvwjXQKbRaOZT4GyGMeletblS9SnWlpOhB2yC2yM20MfXW8cOYE+qZ+B6yjR0y3AetkZheieTBy0A0VwmVpfCS6MnnI4HjjsD+xjv3NTlNNyrtg1d+XKyUBgR/wElykZuSIULBxcKIrRBV+GJrqNEEAIxEDglfb6wF2AyHDNSDMMWfZ7zJ2WChnrl+NJObVD47XxFFws89cSqQij/Qw1CzxV1IDX753h5lY3SkGxhJNYJgUh7rNg6hUcdxy9EsqnJy/rGy/jZy7zOzH+Jfqecf0yFFd2++m9EbAgAuL+iluq+ec8MjSd7Gg0nCmRQveRwnTJzTwYtM3l6WYHR6bAOFilW+EptgkqSwAm/4R1hAT5+O6KtmJeFB049QCcq5Nk2rRxEwhYBOtMM2CmJOqgAozygkOiQJJuZOPpVpaILLUWXEcqMMrRVVdrfES7r/baCtuiD0hYST00BYMJ+eP9OTogSEYKBFkJe+hZhMAbhsDqRPOlEKQNump2IzhIzKNr5kcpJB1FKmsbN33pegi3L/HTnOsxu4lIplBG9Qj4ZQV+i+Sqd6AcjNMpRF3giYSzVpX/hLnBsECcQSBQMYIAPTb2UADjJCqR79fBBXywf2GEclqtYD0Iz8nLz0yCUtgjK1cW2I7GhnHIs/kn34F5q7HobSBx8yvJVshAYf/MY6fAGgHze6cLrhARyi2gc5C6JFFX/At7JsSCy5XyrXTfOQU26XjcbFgrLn9bKPg1dZIhSgiB9YbA6nh92tZ8tKiokL0q2YX5FST5keqCQCNOk+Do19VLuDp/N3To9P2+23CcFpE8A2Z2K7Ncuze5+XlCs3cXHNDMDhrBMWS8BM6EOZm7/2hV21DULX5R7jc3vt6+XQAAIABJREFU7xkZJL26/AvzsVRuWjrbXWPm53gOnnZc6rZy8eFxhnkvUY0sX/f3oB7GMXTBNAzQw9Uf5SfTLYuoYsXKSiO46BD6j3yLpYZauwLb6pj/LxwYbgJp2ZC/bK0Wvg6M41cWGMEQkcjBfnajvkSrZXfMJ5hIy+mi/bt3llwV2DLD+NjJGRGRLrCskGA9vOKUzcI/kwNokz3IAd+WE398xsq4QE8jBNYJApFef9JYXnjo0OHAVRW2X85x6Vgov+i0ZRnX5KfJpx7PFHtN8/cCJ4xsmrr8VODo0oSfTewBXFNcCmdjwalqn7VZnwbbaxCJ3V9f9SU870ySW3o8OzGiodLE3nL23Dfacb6qvt/JHXoK7jLTdtPpqo5HNDVFvpUZ13wmnsFuufK77N94oONgOF+xuvwnLDbYkQW7ObTt+mVncA8Y+EaAubGkakRewR3ENDfBzaAkTHzxAYLbpM6MW23ALjNAYD9/tjgJ4itVFnBX7Ml35FC36UnQt9Me+5Xa4rOuXT9jzyH2z7h/vzhel3Kx8KTjHntgMwMO7RdMItXxMvZ1eNJV02hxhzbX0R7ruZpWeIQUoS4p1STjm2XKLIxaYJw9tbU3HGEdbBDTB04SHIS8Zmk0WYJsJZ+JS/Cx9qqu0dCHPmn3rfpmNppHsrcoX3CrQvK1oScRAusdgch1fcb7bEr44BCGIhdvEPzhy2qjSOytLs0Za4s6eCT19WbqWz6fqqw3u5+Y64/cbpVtkv7YN/+fJNxNB9qg7RXtZ/KSH0eK5IbWdvLn9eYnoIEusZ4nZBsJzEeTsyyeuCwPnILHuorlU7ZaTVhsNOM4X7SzExQPxt6vKv/LsxVZgtCWF6vGLjqZx8aSAxZ5lhT7EzlD0gyhKmlvKBH33r7hJsEXd4oP3ctUH7/YkPRqMa7R5W+wgu+4gCTZnc/OqKw4rVRZkoIyfV+FyTPn6Di+51qmXIp5wStE+yXqqot1Bd6mryzkHGM/V3ioT679F2P1Tky+fZfkqpnyu43FuUZgBVkRX1QKl0eyv6F9mq7qcZBDzceGOySZ0nRs3gu+FMXO7atOtLQk+4lqRUlL9WRlx32P7Xy57Tw4bEBKiH3gHH6atX8QmFj9i5PJHL+xpDaI3RUVc13Nnx4yZcg2ScRg1yRABjyBZ+kaq+I9c2HJGtBNhABCYBGBVzyaL8SoTF9p6Cs2rnCxIB7NS3bXXu/PNZv6rPcnPKQHDKXBN+IU76o//EhftH/F25Ykmtpr/XnBb+6R4As6oGnNUm3brtV9rNdEf6AvFscZeXVnn/nO9zkABbFEulmxKdhbWF3+Y/ETI19+oue6tKu7z+Zwk56nNPje0LZDHxqKDaykpQ1lnrbrDo8PHPJKCO4Fj0E1KhtX6z6Sm6+AeWnZh4eEPsEX9URcGStTFv5utfGX8u4r5rGHHnLaTRMy+d/rdUdL9Tmg36j45IyBumBxPPfRf8LS2W4Kvr28/VNv63+MgeE7niaVK2HkaoxEqE52D2y3XOuzjoy7ZqY9FDQjufq93LyiI7p3k++XYrjCcKFfPdRnBtv2wBkDFAl6EpD01m2q3Vp9Yd6KXwBBgWS6czdk/b2mO2PO7zy0HydkCvVefWmxbnWqE+QBZSIE1gsCf/HDDz+sF1mRnG8uAp7Lx4p63Njmkus3KlI+GH1zYXupkgU/rCw53D10Rv1SWUGVIwTWEQKrE823jgBEor4CCND23j6wTR9X/UPkpwFeAdYQCwgBhABC4JVCAHn9V0odiJkkEKAdX3bYQOyXRFt6QJbE8+gRhABCACGwfhB4Xdb1149GkKSJILDgsV1pa74Boi/YA51SEseXSP2oLEIAIYAQeL0QQF7/9dIX4jaIwEj9/rN2GnzSBmbg8sMtjfyPHSOsEAIIAYQAQoCPAPL6fETQ79cDAXAIzgLNiHBJlvrDjyvKD6Nw79dDb4hLhABC4OUigGL4Xy7+qHaEAEIAIYAQQAisHQIomm/tsEY1IQQQAggBhABC4OUigLz+y8Uf1Y4QQAggBBACCIG1QwB5/bXDGtWEEEAIIAQQAgiBl4sA8vovF39UO0IAIYAQQAggBNYOAeT11w5rVBNCACGAEEAIIAReLgLI679c/FHtCAEeAqSpOAeknTXWGJ/aRYjFiwBzt2ongHJ7Ofc9xngfi6OcvTEXKumoEXzx6dVKI/WsyMeMT+Pi69UVJC72UaFkEIjp9enH4FOz0H64VDWwVl/XZUjbpfL924MVH+5wwu+HrigFLDtAcn/zfUFZKHNZsNJX8GVeEQCJP/zUauwxWuNrOBKnjp5ACLw+CKB34fXRFeI0HgSETulZ8FgvNbf2O9nPda9posZNrWe7bNOrOsihLJ3X9NvRl9mW0qz7696uyzNauSFvc/ALvksVR/cQAm8sAoLvgrKooUUDjoFWSF9zud8YQV5zPawp+zyvz5Cjl1u/MNnJVfW7QhLSbsuFpo4Bt+AwXOiBFeQ9NXX0F3QfQV9qiYUh7XoyE+seykcIrCcEhN8FyVZt3tY3AYY3RpA3QRlrJUPkDD91u7nGyLl8fLNWn7t2ftHRU9nMuXyRRH1Ep1rdESYDvtJmBV9pQ0kQAb/L7Vrzbp8gJygTIfByEUDvwsvFH9W+CggIzfCnybTFDXUn1PNXj5lHVqFOQZLsagKxVV/9r+W6zc76X1ucq+F3MiTEHAWnE+ZsXV86tKfVq9u7EJR0gbTfNlm+dkxMzVDg2zFphOxvlSpNnv5jnUoS9oDf3XXkmHEKU1UOGE/IyFFj141Bx+QM5cMIySZlTn7RzwzazCj2/ZRz4Jp5yO5wQ+J4mkSapVTn6gxHtPI0QW54mR7j0aKuJ1wmYzuzM+cMhonUtXe79UHeGNJx+6u+kQcTrmnIPg64UWzT5BbpD6tlUewsXWW8pEhTCQzvkBmuDFRvpRw3u0yWMecU0CMu2ajclqsvLc4TOIV/zm396ppl1On6nqQXMDxDJleoNB8dP35AoGxMPhnS3m+yjDpc3814aQYe+w9q3K7VHdNrIsG3N+XC2JedDSMXdeIp6+Ues/Whi5yDKpBn78o/UWHYHq5dWCGgbbpsGvzdhIeCxTYp1PlHSg254pjMRN0Ir5QZN3VdtoxNeigfTsiUmo9KK4o1MhGGgQW7y93Xhh2e5zQGmNn6ob6sXJcd9XXCeM3S2VFYYppmzfIwbW5vNX3jJBdU1beMhtAYYYVGOG0qKexwYjLD5YEKwtpxrmvQSdKykus3F1flmCmb6brl3rjLQ1KcDSrf0+QVHde9ywc5CjM2Iy61LvUugFChqrs0tqWi70aJPLyOeGFM/O3meLbBdoMOmKIcSJ1feDwvWpuAJaB6MIH6Za/5N1D1jJiQZal2HSotL1SF6z5KEMZ2ek/tMINtbxi5pGMemLquDkKjWmCgVeVo9SWleVuijEcYZZT7iiLA8/pi2e6Szk9Oatj2ez5pnucs5fubHVxYQKbB2F+tAia4ZBJnbNOdKa3mvqGyevEEGz48nnOvaxgO88mBDtM/XC/ZsiRbKb85bamvbLVygQuERJaVjs3NkE8c4LL2W0raOytygm+UCP9L1onSC173jeay8w5ahBOEmHhB07Mex90ux/2J2iud+swwFil7xyf1pkl2kYSQyLPSfYD4pN0Crlvahostuqxl3bJY8rZKgc14noDGFCMyFTLADi6XBtVHjbRV/sLsXoA14BKZnMDmZ0nPuA1c5l/pWv53g3ZDvJAlQEqMs57Qx9Aey+myZqA+gEQagdM0Ne20XXWOPSSv/LJEESYc/dhY+1mXg53OgXxugHy6H4DLarlTfbHdoIinDzRra66ot0yx3U/Qu5EQ2J/ZGsF1d7DkfM+issB9nK2e8XnHu+prjGClCs8A6mIAj+4HFvf4mOvsjZa9iz6JeWKqquhwzLG0M2SbMjCv09o1bh87WbdruZcFPsOmUKXkcHPNGQsJccHxBYaedlp7qpzezuun8GunqoyToMkmwOeKIDP3zc2PXPQVo2FziAyGxW+WmJgT1LcwY2uvb7vLQhzO8MqNkFO338f80dHVWG+eDuMT/sl4+uur2m0kbCWgbtNF8zOkxzEELovlRFtnpXoZpxSvWpd5F3hswZ/xw5jo203Z2ypqzE+DprhRii14qWm3HVx3LIOf9rQfkUe+22J8ztb8GbRePI0Qp+HAEEFTYJ60OzzdxpolIMJZ+BlsgXLeqmo6awcvG54hJkQMPUc6h03OUbvznLF29zIYC4CDsl4dBH6InZ4Zj74fTJWW+dgFo+788XbZT4JPFlyYeBFVYOmMF2NnPljB41HExxr2BMgdbP3Wc7MsSHxHxc2ZxcLem/8crPSnvc+iiKQgwzdxQc9Wsaf4gu2ZL0jR67xZU8Dmf1gz6A3V86z3pzBvX2lZ4QcHa65/O8M98GLe1Vezjy2+r+XbEJEfXjy7VroD5gLiXz8LasvndVyrOciW/scLE4ull5Rm5loxVN+OGmvkA99dK2ah2/HTpkF3sAbAz52mo1z+P4fjuWQVCZHycua04+g/H92TX9b726B0888GPy9kZdtTYw2zz+eDNR8G+LwdzuevmgpZhPZ9PhaHNc8PfsaazY7CpjvP5oM27H14rZJDv6A1HM+JNhblgrLi/D2Fn9+e8HLQAfx7y1hm3tdfcoVehBeu3p+yrHxQfOG3AcX+8MI7cb3m4I59+zjmPxtcVl3BSouL8/dVGr8N1Pn820ulHOfFNZ8d3LOoLN+MtamQfTEBAovEkzLLg5/VHN2xp7jl2uBvv/3WPhE0zlQYofcm23rsqawr2/FB4Rnj7bHffTvmCCh9/rdNB1njPFh3cyL0sgBL+F/FrMx7Ki2Lr5DvTiVE+SdlN5+HrDExtf4Q410INCnhDUVSMMb3dvu+/XfWuvYUXwpZyw8/+J5P3Pw31qJ3FF/7Q1BA2xlW5INHj+/Z80+toffU94d7F46zJrejOPwtjRZk7HMWyA8PHvxgT/H/Gnz2R47y/DPbBQ7i9/Ob4nl/lnz/0c2XiUDMnXuvTr8klZws+JhMffVRBUeTedDbNbIW4YNcddSdbjPcCyfJO9NZnbvYN5ds1bedLZGDAdOcrbfPzZOXejQhPdXTdjQ4fy4iFIV1pTmwFPXQ4QnOi9DD3b2PwFBApvu8s3ovGIRzCZfkGFrOlSgA8Slz7x12ZJZkom3GXicY5adp6r5oWJzlA/wcaGg/BddKmPFe04N4FmYSJBUYSjJuJ1b0RWfJ7qB0hDzvk1ItHLXTE+OuoFiMw3jBBsbQGdq6jgZdaDYS8Hm4obMK8knd6eqbWg4F2m57AG1Dcqi27oCcCA5nJe8aGss0cFw1fc/qjCIy7ZhR1fU0gsUabugF8C+pLmTngKfGJ54HyjPjlptPAFC4qqylendwYUQkUR1taf84nWInABJI005vbnt7sTpQ5wZ1RVk+nFVgnLYHm8oXlYXL9lcbWN4p50TIcpIzS3J0jPm4s+eMIW+3Wr1TxcmQGiMUcWsctH10Jr/F2FKs02xXa3JYpfvd1y5ZwCgff7ei86x+cUUMWMKn7XW5oAhtv3xtqb2+yak1DmUkB2N8b/eM4yEJWJAcKK8IWQuwng0qfVPLyZ0q9d/LMDg3F5b8pJvOb7tYG3pP8UxtdWUBaxWu8UdxNHpzJL2zrv3TPHkGR5aQ51a3f6KBWpgdNK9hsxkH9qhIYgisjtcXgTUkmSwTXnKZNIGFysSYT7w06yMVJ6r1gTVIynqxd1UCCARYo8aGJ+CrKcvXw+YpMmUX6LJhjmfUzj/3Q5JvOBxgN/iMRLmFzaFIbyCLtg+NwVd5S4EhavINzz6iew/cYxwjY8m7/QWHjT3ngPhAl89jB8i0P48NkaDujYa8b5DZ6P+TJYX/vf54duREJqFSZcEKqOdkoCVjHFZ2BUe236CLWm6QHdDtAr0Ev/veCB9mPptEXtvo+P2RoRtshyY8SVTbYBcNo2eCdS7eFcnyT+TBtjUsKbLZSAK/lwyi73nAKkK0LW8vD0pccVi37HJYJHlAR1FQFBn/Klf8HdtNwbfzlEUoN2+CN+aooOUka5YiteEYL+g21Ub4dpQxuwdHpgD3hPaYnlVBeJLkFbJ9HdJme8y7FfYzObXGphe8kyyM8bzdwZ49M8vGJIUnkaLkorH7fIvhXZ6RYqoiA38eX6FQwlKM18snIySfJL+Qb8mS3Hw17GQzzvG1ajWFOEN5K0Rgdbw+oW24OTBwC159lwxwoPlKpTR1aZk24HinzR3Xl3MAKWHe/8z5HXT6eLZSKQCITKFgncX3Lm7VfLHOt1XsuxqRiL9i2fcxPi7b73KyUffEO4qI2KLAQxJlNvQuYLD8LOmYiSBjStW2KHbAwFqlYCMMqKeu5TsWyZKSb40IRGKFIwhOkYwPyg/StNsJ2zRc+Y6Sy4j4F/QSNsMMz6Q7UF6g0GIWt5rPL/JjLs6AwaLBFKtUb/OLY+npkdqiXVOsz90oV/I6CCBTphDIjCIZkZGm5MBfzATxH6yNbdrMD10M4MX4gpaTtFluiwg+BZWl2ghl7+bwjJmadMMpCpFcGR7EERI7m/NqpNu9jA0mrNal8YeyJw1jHG+3aNOu7fD9pUdayxpNtkneuF6QOZlqa1TfPI0g2DgueiGgfMEnA5lp21TsOCQiEQrl38IMetoT7DXyi6Dfrz4CQjH8rz7XK+ZQcqC69FdjHXBKnHFe7bB81Bk9LlyqkgXK872X5zbwDLl8g4BDDNBZILketnSDcKi7FEToYBTm83rBBG9YrBmIwwp0UJZgyEfNsNPC9K2qnFuxy9FeCkzRA3JJ8P9fpBc6OVyyIdpTgXzpJsD+UwzzekExiQi2C+SfIxFiZ4CgN0qQVEiedCJdQDZeF+r5DMsnY2vcmdMoUJzLAuMd0GxFtYu88gz54Lb5zojj8TPyOdywsHx6Kz20FrBYWMSzCpr+I0srQxoKkwwrLJWCOdXZ5ataLAF8PK94sEYifbmJtqTNUipjJw3CUqJGuJyI0r/mH4Hjfc76Gr+z41BOR+zHZ2AxQSvlnklcrbHrCtxJGsZ43m64EtRe/bSy4wHlvttRe7cDNDXKHDU4SXTX7l0qwTZHRKQLxKsuZwzhYmbIZALFpRKgkyegofHCM9wERi/LIoUKvHwE1qnXBw2+vkpvOWmCQwfa3tVj1zYqxfEb8WRvWZmZN6CQFHYPnVbHVCkYjLJDQzGIpRZKwXxf9AgydlciSAiM+blxZxoh+XHs4qBqrlgy/HPzCrHYB3KBehmM4YpRg2eL2sYj5QztAAyUiZOUEFhL5PkCo1gc7NJcQqFp2HLjHcp+rqym3wP9M+ivbFYppQTOvS4+0vnAE88kaQw2g1M0XDQ8v1BgxwI/e6nfsTW+1FPsvaTNMrB/IKyCRI1wOd6igQjplpAQS8hM4EvodnXUmjSMoB+9HA7wfprCcKlfPdxnvjVoG/fQcx7nMLjMxnO4fLeh+rMKzXId2HgqiSiDcxNavOfE4h9xr/myr0/CFaIH1gyBdev1MXxrafVHg1UD0HdTdzp6D/coOb+1StiDHTHACfkxX4zptWCLFt3WxcEQLoZdFj8mO9g5UKOK44HEi+AEu6EnyCafAJgyZsevwo1FZOkUkuKzAdpHOPAF2420Z4ZacqNvx5tDD7XWsy5ftre25bReFYhpYh8PnB8QL6mockEVB3o/kff9vnl2Y+QapRSa5eobYaCfKNpWfbNbF66RuMFaLbWmEMaYshCKvSUN4FqgwEZQx7jD/o3dMU17Ro1VLrLtWot2idmNmDRj3/AHVw8jivh8L+J+zWPTRndeLgLr1+uDmW5NWYVmpNkORm1+j7nTUgGntOKZxsWwnNqh8drENJcmk7LuyDsLjjsWOHvQy0XmidkJ3kSTWMZNC3spYeJ8eknw/9cSMB1N+xlqFvSTohoYv3eGW+jbyM1aS/Q943p+rcHfiZGKRSVG/sZNgE8qFp8xHorKpu3DbHSkRFfXqFfxJkv/NL+CgT4gCmZ12QHTnOA0KUklNL0fxXpiGSk0y0SNMDFGYWmpDMwvgygc7wyAKInXBEzrrZJaUwjjsrCkSRS7deAyfMr8/+y9DUwbSZo/3Cevmls0HXFqK7ntHBKejGKLUZwZCYtVnI0WT06YzDs4OYEzSpxIgawOnDsg0QDRYthbIKcAUcbk/8awGnD+lzjRxKBNzN4EoyFmxeDoIiMlOJrIjpYxOpbeC3LrUHrFvrTW2req2zb+aBvbNAmZ7VIrwfXx1PP86uOpj6eqAmOdjZec5LJz4MtTmnPyDZNmEYGCW3VJa/jBsBUo7+ZUFtTFqG8Sga2x5ttqiUI0tRAIcB8Zs9+6SpERf3hn14Zup67pdNguiHl6y/50wwSbiCBRKNmsmG+9c9wyexyxwLNv2R0DsJKc0ZJfPCcSmfJ9lrjXy54T2AJXtJ8zDPM94cthxfdsEWaakS2agKSSBS3cp2D1ge+JZxO6mQ6+ZHF8T65I2h+F5yx4SjCZlVQ+mKyI3bF+GeAxffTPweORr80JWC23vhLi7++DpvuhpWfsSbbs3ZYVq4AwppKKp8qhssrW2lKYIDDv20Rt58tyze9bSPJfDfj+AD1xmSxp4J8UWfTYrghsjdanXV0nqqur2K+B3TsX1lHjpuNR+rei9Jlveqq4TKuqT173ZJKn7HjT0UIuIk0mH8TKhESmcbCDh9kzYMvjI5OJLZR5OnJ/HoShyjJNTjt0mPrwQWjStTxuHUvqEEMB29my8hONvRNJQWmZXwvF7I+iqopDsKXTj0buJ5EJjNnhWEAi0xzOYH9BQFLJ/IPjcGUsn9O3Rl4kBS87GsvLqs91OSDaaVweyhnI/e8fE2+oXLD3fhm+U4FhchxhAVMsSD4055xMgJJ2fekQvr2kERQRsFpuSSWM433PR2VFwIPxfGnzJI2N6OmuyrLKmjZb6mFT7sUa1xZ48BQQxkTqzGNzTWXZgU9McFUy0TFrLA4ou2smpAsFnL/2JNRv+hsnO5TGVKV8B2SEzF6ktYUIxGv959b6qsrKY+GvMeZIm+f6yah/9UVw92daF6LJ+chcfDGTw6G0s7M6Sr+yqtMVbdKkoznKUtVJc4KBWFouMgrMV9WfE3hHLFW+uNZo2Av0Pu3qa7RMR581ZKjHtuaf2+ENo4VH6xOP5qciluiPHa6vhWd2ac/VRtOol4qMtJhFt+1io/kpWB0h3ylMNIpOpML9BivQ0A6O8U27IVchTruh6jO1UFmtesyf9TrnIz0QuHQd3JD6BTwIh5fVnko+7cOTh4CkkqmjqhqjGkz3Gb/ls0bb4xicn9pNxh43RQcWEenO5ISxPrhqH3tq7MXdgbEIhRDtn7DU/7P5VWUNd+7zu2/nePrh9ITZUPTHOl0R+J/xDjb3TgTCT1qDhwOuNXZN5hE5jfsyyJY/ioDVUshKyMusRH7qnA4+LrBob7lgcXGXJYOYoGge9Nb9wkHSZICR7k5anokQy75Y+dsCD3MCwphAHX1PIV2lmWWn6bzZGXtsjybdQ6ZhuEKJHSxLvFWCh8WsvDB8bczUfNMT7UmopzbTVRes8IU6fdKlIFnRFiO/WQTi9/WZ4HcL0atE4hhjKHI9AMutr0sjKbP2MkCyS8SJDizmL0azw4JJA/zE+Nn/xg431ZbM9M7mOG/LIkNUbuzpIM93Ohe81guVNnD7Op4HjjuBN1oAEZTQtF5pSrxYI3PqEpmhp4/8V5P9RcB5ucZ5FSN2YcgaTS6z6KGE9mK/MeGKm1TEMZVaibpnGWrSVDllAok1lx71HgatXd/9y4UGk93/wm46fr+H2C394dqrP5DwNCBQ+aXGvrbEaz1S5SAkqeQ8duq6r1DwHn7SbT5XacFwaUHe2kowfPZup7rpSit7x1g6J/u0XvegxUFSrs7K8iEZ8cO1IJQUJQ639tcd9P7O5nrEUA9MVc9l737cMXAmyy1VVFl70eC5YPOv+u1t1fZfgmcF1tZWwNIBpjzXq3ve2AVGGsDwM0MD73RyZBAmYLUUsBKmYBw7BC6MCzZcdVOz1pYqK3jLAstHaHBHE9t8sQ9qetNWwqyLNVVbSGZPQBgTiOPa1g5vwGQPAL172gbe68ILYNOmwxUalR1rby3fqEInM5zeZ2eFUes3X6svH8KJH+3Io4MBrifJl9f8opbHLik9NTF0OyHw12zNFy0HQt9gGDljfR0rq4Xa7pvKCvCM29TM3DwZmEfAY2vEPsXBMl11VYbP4qWuPri65daoNvLmHglGS+A6kiIlfCPu08Q34lJTASGEvq174ZIZvnUGnvEhFIrIGgF+qOX2aJndNuJ8NBcgA8DGHbwcI/9A9dHH+uryxAth0maBCEgqOSPQ+w+MqqNv7oEBJUAC4KwCNlAA50x6yAJN+9CA7Aurw+1behnw5+GyvZqKj2tr2QeiZBdavSuWcT9Fw1f14L5Ntg4rabpxQzFktU+Bh+Momv4BLivh3tyTeTqgVWnkUES2hHOKL2C1FKwSphIElR/vHy1xjXzJvblH0iugcAl5iVJ9WH/8YyW4KyKdy7pYU7YFnlwEhDGeOmwsX6rvfzk+Nev97vfAZhc0bRQvlL9brCo7pj9awn8FCA+HWXihitP9t/fYh++ChxzBLZQMvCSgtMzws7OajR/xyiIbMerrR+BvwCMArz9XMUcRAREBEQERgW2IQPj55j01t++sP228DfkUWcoZga2x5suZHTGhiICIgIiAiICIgIjAliEgav0tg1YkLCIgIiAiICIgIrDNEBC1/jYrEJEdEQERAREBEQERgS1DQNT6WwatSFhEQERAREBEQERgmyEgav1tViAiOyICIgIiAiICIgJbhoBow79l0IqERQREBEQERAREBLYZAuJcf5sViMiOiICIgIiAiICIwJYhIGr9LYNWJCwiICIgIiAiICKwzRDMcYPmAAAgAElEQVQQtf42KxCRHREBEQERAREBEYEtQ0DU+lsGrUhYREBEQERAREBEYJshIGr9bVYgIjsiAiICIgIiAiICW4aAqPW3DFqRsIiAgAjQzsYDJcDV3NngmWsB8/y+kmIesFiW1tuXBRUx5DUfg2VUftkjKF0BiHn7KiFnR3o9kTe40xHdxoKkY1sMywyBlG/u0c/sPd1m53z4/Vl1x1R/ZSZPlWWWbapYtN952+6Y9vh+H6TXwCtPhEJ5UHPMoD+wqUel3B1ljQ+iz/Xiumuj7QeSZaHsdeW9syxne40jd2rY99X/Wt280/o1SfxjjXbPXysCotwiAmkRIKdt919gH53QyfPTxhMDRQS2GQJ8Wn814Lze1TPqpTMZFQonDzNvb/7XXnfM6JuhSO+U3Tt1f/xE37ULalyYvChH/y19qficVDo0/V8PW4aWNDKDdk8uz8imIy2GiQh8HxCgZu6YrU9U0soYrS+RVZzvVvwJQWWKt1vE740gb3cxbBX3CVqfIaeHeq7Y3GR4ir9V2SbTXfVaWuNUfkwUxn/H1Cm73X+MSE6Xi8+8zTx6dOC4QNRy4WCbp6F9L5a2OYsieyICbxIBxuf9XXL+mPyQVp7s/fb5fG8Eefugfw0cx+/rU/e7mq2cykf3aPRlr08vkr8ZsC+E5cXLWqwPHs0+nhq7aoisntHuL2wewYYijOcLs5N6DfC+nVmEfH6fYFi/nRCIXIsIpEVg0R+I7hmmjSgGighsNwT4VvjzCc2Z9tbTqlc3T9qnXg/DpMsZ0emY5nybXlkA8kWJQ02tVe6amwHIxPK447+aVIc2t+BcgGMrFGytKy7LFx7NRdXmyOUEzirpvm9zfO2ZW1iiaAbJx4h/UCjVWv2nOmXsHkbIbzl+0rqAKBvGrKcJctpquTPueb5ErSEYvltRUlH9M4OmMIn9EOUdu2WfcHv8kDiaj0uLFKoyneG4RpbR7mPAeqLa8oKTi3G1HShpQxCJquXBgD7CG0N67n85MvV4zrcI2UcBN/L96rJq/TFVpsYXIU/vJ2kNqZLtKlb8zi9vOaa9vt+T9CoCDD5kcqX641OnjsjjDDQWbTVVZi9CGIbGjJjTfNky7iVpoub23fUNHeqZ4+6I0/3UF3gZZl/2vkpzpFpfJktCM3X5LnscXzqc/wX4CdKrbCEWKXlwzqkQqaf2Yatj5lmABCWIyxQfqvU1tdofpWYmISQuU8w/OmAZeehdoGgJRryn0p6sP1sOJWUWXUODNudjH0kDPHfvV+tqzhlUSbtomRZ3BsgjGRZiCkHpscayTjeCafsnu2XT5p7rDs8infdx/1SHOpKCIR/dt91zeryBpRWakWA4IdtfqtWdPKrOsGpmUqyUvX7dJs7Te6SkF2TP1VhgBFdVY1tE8KqBiYuqWDkyhZG01Rwze0OE4cZY0z7Kc9dic8zAskNQfJdif5m+9ow2vsaDjtHr+NIerYpoPiYF/cmP2f5kZxKUP0DyQNHPO4e+sDtnQdHDLkJWfLDitNFQGlP2yYJE2qz83MjtM1Lv6MDwGGCMpNdQbJdM+RNdbY0+rvtKyln02D4IJGj9POJQTf/5s1wjeZUzmyuO+vKusLFoocE62qSUpKVFez3+SIRitQqq/LBTHlLhNwPstJz2zvqQQ8q0hDYK3PnRqZKHlklIjxwz2/7pds3ejZIIG77oMDX0OBfZmTTolIp2ICtL5AsP+Jyjjpq+fmNJRItJ0L9ltRC9GvTf6aq76qElKIblYX+m6eWA54HF82iu5Ua/vjCGP8ptPm+yPWfnIBguK9qxBog/dzvAd0/Tfq1bV7ShXsvD31PKkaXACwqwiBXKCcAOKpNGio+a6m34hd2/CnNAQZ+KIa+WycCsC3z2X+u6/0+7JrmjiWEw8mfeO1IcT7YaCdHUCotMfK2kn1lbPrN42EoAM90JM/U/Bp/T8VXTtb7oghCC5KGgU0NCa8z/eiwdJvtiQt60Z7CxZcjLAoRihGy35FXwZcA7Bb779sOt/Zd0svQVlaVHz1rqmq3+MBUc34kwKxSH8/hXuu5ftWui/Wf2hUiOtZy55KIgOJBDqeSVb8pmmnZ7O6sThEn5MyZTz7Xmxpt+Jh/D8lGEpsnnLmvb3AJyp1s23mg0e1ZQrCAPBDBUwDNmnvs2OHijSRkzOsyiuDdAHsmiEFMIlpcHWEWYNYb2W5vbbH62psDi5lyIdF5q7BwLQG+AXKEMWQ2SC14X+H4zousYbD+cNKKJzyjTYpVIZfvkryjSvwhqAErslWFAlRbh65zEkwW/soYRAUIGHBfrukBPBRp9PobSNLXodd30zjwhb/yqRh5px/RTS+N5a6RC4zgBaicV7k/uOYzXBmv2xTd5CUo/Np+5aANNGC0A3QkDCPsfO/yzM75Ld7rTQcQVMKhEAVdnY8sYicDuCEPXQK3yu+/2uqdmu4d6tYAB0W17BOL7V1zX3vcmWF70BSI6AC8k4lpnYdG7EoTtBBFyASyqKePmdtky+0dkX12t6lGvB+gtxj/Ub9de17++isp4zZ91OYEqwpSGjnZjZHJJgeMSHb2uRa/1Yte7d3u18b3Tq9kB04sl1YWBpip2Mh2i/fe6Gi67qBX38E3P0bbIckUoYGtttj1nIPG29trDQCMDx1Cz9p5Os4t0dX1mkd1pUm6g9wldp1UXnnCgqrobveUxCeZtzazKR/fqOv6tSbuXzQHwM2HuvOzwzztMHfLRwQzwlCiNNyeMiWXHeK+drLsJem1cc1K3foBi2dl13uJZgZm2/luTLprpmNnU5wg8NjdckY12qMO1IqyzmaUHVg8l054zVBQTiERKsP7UmIlV+ShxuKm7OTI1WSVdQ6aum15yssdUqLhxLtqjJvIX/r3qMXewKp/QtFxu1RezpQVAGOtpvuwkFxw9V9WqS5qEWpppIZL2ritQ5aNFuo4rrVpulLbid1wz9fQNY6yey9y9emzuIvMMfWNny2DFoZ/ZTJ+Z3RTl+qLHhHqWSlqsHAgM5R5saAaDg3n78G9r+49EeM+quNMij2RViCkkRLksQvTMjbuBXeqa07r9RB6CcXZzjHeQVfkSXP2zjtbT4bk9s+geutxpfRxwdDbLZFbDnhSkgXfmxVqgaRnSgLN/P+1wM5L9BvOAPv1INysYw8MYeu6mafy/3zVeHaw+xDZkOuD8vMUEBHx2a3iqurecK6PASC9U+ehefUdXvXZPuOCo587hy532517LL4fUMatcUPg1j6U7wPy0xfovR5U74SCKemwztYH2RTkH754qS2PjnIew+NOT5q6VPF3bbWOlHAc+DOm+3dV53UMtu3quOFRXdRuMrVKXgBjy2hDYHuf1XwaDEa2/o2BHnPCYFAt3KAjycikaLUeAVteYQn3TibDBDfN42DIF+u/X5KivBuzzIC9c29bfFLOejO/T916qgbPMFdfwSHTRI8wV9XROem6w90Rk/VyCyataa0tgKPXEEx0t0ZMDw0+BWiB0v+xvCqt8EAXFSwzdl2vkgPiCffgrahOi0i7rsBeMlvLVrVfawyofkAP8HGnvOwcHH8zssO1xlqopwhA93WO6DSdqxLGO9vJo18F4rJ+7VhCkQNNqbg+rfC7TY+39jTBT6ivLyEKEioSbcdHu6aWKbmv3GZ26VKUuYfvNkHd4yA1nZ8Vn+y/FrEaC/ayGvtYyEIXxjw67NqoOzFPnDEQR05xrD6v8MD8drWxfTH3jhGPKeJdhIfrHRmBaiczQ2R5W+YBOgVzX1m8spLMtPOrZkvJiv5FV+cBh+wxNx9jR1ILLhVT3RUFAcXWdsQIusDG+J74I41kWdxrkkSwLMcJB4v8SVo6Qx+Xd3/qrfuMxjbpUreZGXeT9AbbyyE729YVXKmFctFBtvNyhA+P6Ve+wNV3Z5lasiRzy/M4WRo4E4/ci1Vf6aziVD/wwmfZ8rQYuw9BzYMmTc5THA/sT9GBNU1Tlg994sbblUqtmn1L9HhIEbSfWLfuDyo7BTj2r8mFavLSm5VO2P1ycnXsZHzn+F5eAJoOKc/3tx1iVDwkQ6jO9HUdgg6XdjvHFdBTEsG2CwNZofbCDWEQQhfCTEdI0a18cCsyf1vtaNC88Yg0DJMnDoun/9MeN+uSNUGXHFvLTTZEJKeW8NuzNUU9tlFdiODUzOQezIir0UMfEu+KjumLoE5h2s1YMMQ6vMCQeXsAVe0FPBjQMGQxHpN0TMxCcvUcNhxKJo8XHdR+CMMYzxSqs3Nyqx/UI5oD9RFfBZh7riHItu+ZAPZyOqo3EOOl+g7ngJQcJ5rh7DN3nIxN3kIDxONntGKLcoEuaURFHdAdBPxjyP5xKxAx5LwmHZ84ZElBCVceSl/FxzSfs7Jz2zMxuUBvQA+0Tjx9NTYy2H07AGVUo2XnnWpBMRjmjQiQ9j1lB9lRUsJVh3UkIXWX2NijER/r4yrBbHl7JUP4/R+FAMOpQmbwI/qAp1uoFuJyLOxn5nAsxyl78H9KkykD+ljULQlWGk0mLWZhafwSOdehHrjTmwDkWawoO171zhRH9sf5UMadnI8QwpbII/k29BJYYrIvMlIJUpBuIxEUKdb03rP2XjYnHnSUy3emExUREBjYpIDW+ehslGP0DO1j9SUL7x9QffwTVfsjnebLZHjo5Q9FHcAS2Rutjmva7Y2P34Ddy3RDXv/BJsPZnJNrX5sV2RlzkqM+fkTW+5Fn75atq6yJrsIt28+0knZE1xQwShL7z/g5KiRYrFMkyIoRcDhsO8nsft2u+TvE9pSK++YMg7O9YlbPGhAEJ+bys1T32vpzvciFcARa64WTW+12kp1inn+FfEcYUyv1J7ID5qFJeCAlR875klbdBDiHS/sseF0iWrzz773H7ysiin92zRBXv8x2ABv3gHkg78Jzb5F3Ph/igJAEHyu+DSl+yW/4+i3O8Q9+Xs4VC+/2ZVAZgwoivL0FFSIG9cxaZNSYZ5IwKMRBYgOlRWdHuePbAL1Cyu3mqTVK8GA/0PXmCmQKaz42pI6PG9chYHrudz6ythVtirsWdjHzOhZhCNkz5YUJlAKfo2LEmsU8RYxIUTS4vZg3gVv2+hRQkw97ZF2t6eiA0Vxhl+5K3MsE2OpsfMG3g8t2pUsFRHOPtr2sZdAK71Q3ZQfLliveSYu3YEd+bJEWI9ZCX7I+x/AiHvCcH+7CAk8ACbGSi2+YI8Nnwv36Wf4DAysvmu5bcY0Z9WANUQRx+pKn21zNmuCTOeG+aHR/3J08l02W0SgV+H4yOVLiYaIFMFl4340u6SgbZVindyW9PLN0lBUoTzBTholxMu4I2M3z04vzWqCV2KY++11hyL3VsOkiBBWRALgf+/4dkt1dQfCeP1gRi7QbszyNIEG7WgNU/ejFA/ikeIXYFKElZMv6bJvNjAA2mPt9dw2rxdRfe02FcHQdKOlLKxYBMQZ8fEy79e8BNnFt6yc2HiN1JawYwXoEUmmOtIuy0KbwBlDI/cFDiq7uO3856fayteEI94EuWUSGuBoPs1oAUl/KNqyDAmQxJ1vP/YVLN4dbhJTveSe64fxBtgiyBLIs7mmky8pGNuawLkQ9IMG6TErsS4AmSXFtcsJ4stfKnAr4htmz3pgxHsi/W1LQiIbnCuAOL3+jk6CUO+8BOUKuvocdFQtsU1xAwv1UqPyxRlR7UHFBCO9xk98MdSQ0QQMpT3ZKTcj4oLuVp/wUY13zolQyaTyrSov/rQmBbaH3sHbiKz3WezFr8iDW0Rkcn+O/E7PFvFiBC36h3nLXBfXHabRl0azoUPMsMqXJ5PlxXZ0+Y1CYf14lLDUbo7PAFmCLzUo34r0UX7qLRNm6UYM7PjY3yMfyHqaODrLloufDPrSukYh/IxaoNhotGjV+qDl9vHBUj/gQg5808tZi+gHsseHlrR+JGBhgDrnGFj4Ijl4ldXgyK+YmLQGGD45goYUoSYOafAn7gD5TuhqtJtNfS0Gh9xtZScOpJriL+LkLxf3zuFwmVYj0v/mxjeQHgsT/5IUbhyPj1uXA58vPCMhlb3Ot8JSOfcyGmEBb928QGtBYeeIGjegWpQZKkaHhcNrkWawomI965wrgB2UgwsPrs/VLpvj9i/8+HnhcUveh1g2/MakYJVZWxpU6b2XndDHOD0fLyeUcTbHUAzefPWZASo74pBLaF1kf+ngBnw7gLgF9R8QcGV4LRi4HRv8cTZ3CbgA3dV9v08XjjGOymqa/Mw8cGFVxHtgma6ZKiedAIOYSsrfIrloiC4+k205HlwtA8OGQJIcQn/WPNmzvcmCozlBuZRdhMjBZZG0bZs3MZuhV3T4cNWmEV6jsuJm43QhrsijQ4vaRpm+guy5Aof7Sw+gqxy6PJM12gmliVC0qJP33Yl/FcN7EqH1ed6+4+rQrbNLGhYbvutOnTBUZrSHioEx/3T5F13XQkhAsTsLiFK8QU4u14hyu0PacGc3w+Y8uKVUAYUwiP5MvUJ1rAB45fzj12u2c9bmAbtEJ67phq5l/dvqbnDrCkSp21P381jOwMZdH4s85ZTCAUAttD6//Du7I8JMAub1KL4HR+zGUhAX90K3r3HgXvODNXLDBguqye6oKG3aGAvd9hBAeB1g0M0lItaZmYbUkbIykwn5CyGiy4DK47TrI5AkvjnGVenlTKtzeZRC7eI4+AqZbBAjU/8cTkOfAPhlxwZMZQy2CclLTIFwoucSvou6Ts4X5cPzirT8w14TflvNTpIIGmldd0NsWY8MVE27UbUKNSZboB/bjg3bvAXjnILLi0DNbzk1JSQXD9EXDsPktqF5pzTgEiCHrI2HtGlVAbaRpc+7MJB07VsxUQrEQDOomjj5fka70kObviTiu1cIWYIhtMCtf8GYSCu0uZ3LiQSGfrilVAGBOZTvwNLnRSHQGfoYkhXf3Nprt++vHw8OOj7QcSq1Jiymx+0xTcqEzsh1focPMpSNt8sslIjLt1CGyNNV+2/OarSqK3SXinZkC/HHaMZ5q7nQX8xlWlkQ1XcJ3LAjB9Yj9wv1Q0+ioFzvRz/iS8ZmYjt1PXdFrOtQnm6S37043ibyZcolCyWTHfeueSbReQwLNv4aoDsofHdm/jbCUy5fssca+XPSewBa5oP2sThfie8OWw4nu2CEMJuSJpRMDPDHnX1DMFREaVdd3GhLtEoikKw/ZZviee+I0ffpppfPFiOQGCQ0vPvCzO8Q4Uig8WCqbYm2xIFxMVnFti7SdkxcnGVtRMbucXouQlsncL4Q9gE5Ws4MlnXnDG4fU5AYtbuEJMIX7k9MQKd5ItRaw03ltXrALCmIr/5FqBEprGWtZcmQr8Lsm8PxWdDP1/5+U59BSem6Gy9/iMiTOkLEZ7XQhsjdanXV0nqqur2K+B3TvfwOEffXwwPH5kPJbLNu8yA24+CUyYe+/BqRV0RTr2+BnrqHHT8Sj9W1H6zDc9VVymVdUnr2f0xLXseNNRtqsF2/tkJkawXNxc/sUOHmYPXy2Pj0wmqjDm6cj9eRCGKss0UDll7TD1YRbA5XEruDYrwYELfM6WlZ9o7J1ICkqMGvd7LRSzGYGqKg5BhU4/GrmfRCYwZodjAYlMczij/QXmhbX5OlTk2KHW7tOpewrJfm0Zm+n0rZEXSbwuOxrLy6rPdTkgdBu5Yo0GFjTj+bXDn1ghyfFR9jA3rtGUcIPAFNTyMW5zmP7fxBKkJnos4VN/zP+X48CLUJewhT8/Pv48ngHGa/+1NwVPW+MtYHELWIgpZCV+wh4cDQUc/5F8KB/c/lRdduRky6CbZ7jHEcylWLm17OgpmhScCQhjUg7+G/WVhw+UNTt45AKmDmwlz8sXes2dcjkS7zhhPBMPIQ/o/pIP0zafJBFEjzeCQLzWf26tr6qsPBb+GmOOtHmun4z6V1+E67LpXIgm5yNz8UXOdD1ddBCGl9efikz4qGlzzZEDJaVl1W129oJNoE5wXcOpDU8AbpAHb3C+qv7c+g2qvFGE8sS1RsNe0CpoV1+jZTr6rCG8Hqv553Y4kys8Wp9s0ZZZ9tjh+toPIHHP1UbTqJe7zRAkBdeT2S42mp+C1RHyncLM1t/AqQH2HI5v2g25CjGstRSqPlMLF7XBLWaf9TrnI2oPWD6Pmhq/gGfn8LLaUwkHzXmZX/VY2i3wgOJObXsbvEMltUNVNUY1WJBn/JbPGm2PY0B7ajcZe9wUHVgExyJSE4iGSJSn6tiCfmFp7nD42Sk7dODWs8vNPfByIUxVU6vm2fKPkmD7NfYUNTkxYHsR0e10wH0DXKPrO/gzHdxDDS35uWWbmHQZ/imv1MO9HzBK6zA5noc7c3rBbf2s2bZK8J/9yJB01tGEK25wjl6oQkwlBXG0/lP4uAA1Yaq77IwtXNf1xuabAXCJNb1DBkuf12VfrOA6W6hOQz73N2wXxTURHuICwphIXVYsQ1YYcL1VwyUHnCZFHLjz337J4gLtC1WVxd6un0ggl98ojs7EdV/gqlBTF2sdhR+ursikJeaSrZhGSATi9/WZ4HcLPFeMgAzBU/frAVjiREcAjiSymp7uJaPJsbBefcNkwS2bjddaky6fESBTlgR2uKm2ZKZ3o+tZBMgOlRt7Osjznc4Fr/VCpa2A2I3ngTN3JHv5PFiWa73SlLhXnHmu4EK3nj7yX032F0CN1TivYsQuDFmjyWW2sFBCC65pS7j3IxVxTKVWou5Zhpo0VU6ZQGLNpUe9h6HNXfcvFxpMdv8Lu+n4/R5it/SHa6/+QMLTgKDNlxr72vgs8pJyYb4ZYe8oRJA/untOlPckRUDy9huHesNnKXfquq9Q8B5+0m0+V2nBcGlB3tpKEL78A9xOddOVVn6bgCSyeHl73yLdOOghJ7pOTprxQukO5FUQvCEEZ0WY8nR398aPL+NH6/QjRltgxWM+9dNbhTIpsMcgAQVcBaro0WDnlw5Qmu7LVZUjMs2/WJsOJDGR3qNI31rnrrvmoRecXaedPXCjH1x0Dt44khmu1NK/NPFN69JT3ESoQMXNFpNghZhCHlR5rr8j2Nj5IOAfNZ2814nvApeDrQVfUuyUF5VXdXefIFKkBd7ZF2uxSoU5XDTjuVp9oB9QYF+oSrYXASECwhgvAFpa333W1zjkBVd019zrAudcpPl5a6vB8GMWEkLT3BL3Tkdq+TMPwQ4ZjSuWruTuC9wh3Zh4EXXmZMWYrxOB7WHNx0m8U9N+87b6LnyPDr7mxKDYzt2KD8u0J0/pisPL/1sDDaFvMIycsWawE7Hp/Au13TeVFaM2x9TM3DwZmEfAm1fgcpGDZbrqqgyfxUvNA65uuTWqjby5R4LXQcC9I0XK/aUa3ad6dfIDfSkpEfq27oVLZvhgHXwjSKGIrBHgh1puj5bZbSPOR3MBMgCmOeD5O/kHqo8+1leXc/v+KYmuB0Q3DlZpbsSQmEYSpGOOAGEf1AyMqqNv7pGLUCwAmuqQzgBAy6JqYMqzA2OljlsjzqlZ3xK0GwWUZCpQx6qP6z5IORWMZQ/9oMn6K9nADfvMkwC56KfBCzk/1utO1OpLQHL5+TYD9bnD83KN/iPCXX2SKNoGv1H56f7bRbbhu+PgzT2KppECQnlYA9/c2xMwg3UIcKFDijMgGxDOKViY4mazFq4QU0giIbSdt5Vau+2eC7659xJMUuBzcPv3qcuOnTpagqdfes66WAu0rZe+W7s6At79Q/Jw6R757tQZCAhjvPCYss46+mPH3V+73M985EuKBM9VgOcf9+xXlKh11Xr1xq9tpQAznTehu3yHGB22fTXj/V2ADoGXjuSqw+AxQF3G7T8ddTHsNSDwN3/5y19eQzZiFiICIgIiAiICbysCkeeb8WMDE21xjwi/rRL9FfO9NdZ8f8WAiqKLCIgIiAiICIgIbFsERK2/bYtGZExEQERAREBEQERAYARErS8woCI5EQERAREBEQERgW2LgKj1t23RiIyJCIgIiAiICIgICIyAqPUFBlQkJyIgIiAiICIgIrBtERBt+Ldt0YiMiQiICIgIiAiICAiMgDjXFxhQkZyIgIiAiICIgIjAtkVA1PrbtmhExkQERAREBEQERAQERkDU+gIDKpITERAREBEQERAR2LYIiFp/2xaNyJiIgIiAiICIgIiAwAiIWl9gQEVyIgIiAiICIgIiAtsWAVHrb9uiERl7axEgbTWlJSUlB1omkh6Q3JxM9FgjoFtSWm/neVN9c6Q3mXrFUQ9FLqkfzYgzd0cZjH3CGthkvmJyEQERgSwRiH9zb9FWU2X2wrcpoQPvUI0OGXjep5ztLa/juh1Uc5l9g1VYt03YEFaoraVGeUYdz5B9uipVRi/HbS0zInUhEJh3Wr8miX+s0e4RgppIQ0RAREBEgEUg3Uu7zNNh84OK3iNvWI9sEza2dYVZnRu5ZnH9qEZ9TIVLtjWnInMZIuD/etgytKSRGbR71t9wxUpqey9VMBJcmcX7whlm+FqjKarbu9UMgskjbzi/1tzFzEQE/poRSKf1EYR2DQ57ftqiAg97v0m3Tdh4kxBskPe817e6QRQx+K1CgPa9WOJhmFBqCCWP/9vmhe/TaPe9bUyL/IoIfC8Q2Ghfn7Sbb/rfvKTbhI03DwQ/B5TfT/KHiL5vJwIhn98nsE3A2wmEyLWIgIiAwAikmuujWAFCr8B+x3/HbK8c0PNs7wvMCh+5bcEG9cxxd8TpfuoLvKQZBMXw3bL3VZoj1foy2fraK4IwDxp/2uFmMG3/ZLd61e/4Ytj+Ww9MkocRRcqDlbX1VTzrssyCy3bb8XDWFyApjrjiQ7W2+pTug8w2ViZbDlx0hfXDvPVkqRXAiFcNTFxURfCk/RMj9q8eevyB4ArDSFB8l0zx4UcVn1Zr92a8TAzM044Bgw/CcGOsSR5w/r8Dt1jRkHxctu8j/b/U61hS1GOb5YZj5nmAWkMxQqH+uNZ4Rk0k7jjQgcmRkYkZz7eBJQkQsWMAACAASURBVCqCp1Kt/fSUPl7kzPFkZnur6uwkgqo7ftNfyYMbPdlSedFFI7ju+m/aS2MLLabShbzmqhrbIqJsGLMeo+19PbZvvOSqsumedd22ZcXv/PKWY9rr+z1JryJoASGTK9Ufnzp1RJ4ZlJnIHrCeqLa84BhjXG0HStoQRKJqeTCgxxFgzVfW6Y7+XOd+lXTftzm+9swtsKDmY8Q/KACo+k91yng83J1ljWM0cqB96poub8E5NGh3PvGRKwwKirL4YMVpo6E0AUDIs+3BjNcXU14K5cEjhurDMh6pJSgSojx3Lbb/nPEuUDQC6ptif5m+9ow2FiNgzdf4gEb2Gkfu1MhYMajR+vLLHiRf2zvVfZB02b4YGX/sW1oBzQcwpqo4XmuIb24xJSf+KSIgIpAFAqm0PqL61LBktfqBPln1DF93VVzS8LTwDDOaMh1odnKaCTvSP9WpzjAdiCYkG5nnuh6T9gw2tgx5aegDNJlst+RV8GXAOwW++/bDrf2XdLKIVkPRPBhrjaFJV9d5k2OBQTEMy0cpmiafu+3P3Z7AgLVZFQMjExg1Nfa5SGg+ieKEbIfk1RIZ8EyAz+E43dvfEBs5BfcFRYp9cnrRH1iBNGTvSVEkT0rsCMde9dsuNpgfURz7OLE7LxQMLvrd4Pvq7vi5a32n5Sl0YHx2eRHZ/tdrMzaan9JAtLw8hKYp/yN717PA2s3+g09MZy65KIAShqGrNL3odQ42esje0Y6YmhMiHW11XZPswoQEjJ8ILBSklgPeSfA5phoG+2P4yRxP9EOdtshuXWA8Dx6SlckDVNo96YElWFihK0kjbh7KBq6tLrn6TL0PWNBihiz0M2vLZxYPhyUorZ3Iq2XS/xh8TsdXTdf6DPL0G2GZyp6Hv6eUI0uBF2AUiGCFcgLUGFQmTRw8xRTQosPU0ONcZFsYwLRoB7KyRL7wgM856qjp6zeWrFc6lBOSWQvOWkzNVj9QywWgLBlYlI8d/tkZ36U73Yejip90ttWZJtbLS4rQQSrgnQbf+P3yjsFObfyoDlAnHRcbuqbYipCPoSs0teh13fTOPCFv/KomTW0LM/Znmn5irWu2gCYH61g+ytBUYNZpmXU9PDt4o06ZpvxiEBH/FBEQEUiJQKoVfobGjzYdC0/wqUnzwGx4PpmS0pYEvGE2qDETq/JR4nCLdeLR1NjIyL2Jqcmx3tNg1s6Qkz2mQTguCjswywEuFHD8ssuF6bvvTD2ampqYevRorN9QDIMC96zjbP/JOXq6h1X5YeITLPFHkyPdJwBx2nuzxTTGapj0rsRovXG76RDbrRfqum/cvn3TCnQnm4h2X2FVvgRXnxsY++3UxL2RsbGp344NGA/gYELmvt7c84gdz2zs2AENQs/d7Blerei+C0Wbmp4a6WA7fdoz3GcyfT6nqBuY+ObR1OTUowmrsRSyRH1lc8SITI6aeqDKx5Sn+8cAjQdjExMQn5oPQGTac73TNh/DSuZ4SuRHK+FuN/PE4VxIEoZ2u1gxZeUVyjS6U4L+LRtKz48MTzLKY03dVwcGPm/ScPZmy86u81Dlo3t17aBkQWmNjk1MTd1u04EFH+qxueGKOz2UGctO6Dqtt6+cUkBmUFXdjds3b98eatEUJMnFeTBe82ddUOVjSkPfyKOpibHRkbHJRxM3WjSFQBiv9WKXM6Ye5UnYonw51dUxwpS1g1r9aBIU5aOJQaMKZBGinF/c9UdO8dCT5h6o8nF1A1uyD8bGHoBiG+s/p8YlDDnRY55IqKIMOdbZ4323pm9k6pspWBOmRror4WSeeXZreCodQnk/QGAjYXzDnUNLxcb+e2wdA//caddBe0bGf6PL8uyN9EIpkBe9RQTeTgRSaX1k7U+I6mfGcF8TIu9fswUifcHrlPRNshHyDg/BrhwtPtt/Sb++UppPaBr6WsuAomL8o8Ng4TjOhQIeqqL3WlN0/Rwl1MZzR+HsiZmbfRqJHfLfuu4As3z0A2MccUymvcARp91Dt6KnKHPBfGHE8hXslImqvr4zKoIdkwCHEqqayx06MKILkeM3Y8chqTMJK0vGPy9tutKi3cMOMhBMVnne8CH8i3rkCpZ3g1xwLhdcWVOngwOCkM+73lOTrq/Zzeo91a3n1ERkZgzx+UWtHEb2P5xKOr+dGZ6EVqsCWYf842OJZij0N+MzwNRRIq/QcoOh1GKyIeT0DPNp/2CbQXtIpTqgZHFjPNbPXWA1pUDTam7ntjNgVAkmP9be3whzpr6yjCykoZyT7GnoRYKorwbscKiEa9v6m2LWwPF9+t5LNXAhasU1PJKICbLoWVK2DnaA9X+uwFC8pKapil1rX5idexmm7pudg/V17/Gm05GSBT/zCfWZvu6TKmWJElsNJvAY8COGz/uNZTKMqzOgPn9Wz6720J5ZX0Jkvp8UiRzt7qtRF3J1DMHAMKvHCOf4YDx9zyOqfT7QRD8RgSwQSKn1kT+DPk7b9DPYowHHPL9lzmTqyZt1vlRWRBCF4JMRYAU6KycgG1nlCyI/c86Q4D9UdWx9GT9CA9d8Eu7KZpJWQZTHDAlL82ixnJ26MUvBiNb3j08tAB9Mc1If3SOIEtdWVcBRAulyPYv4Zf9/YOohnLSBeXB10rpovlp3GC7kMN4pbsk6Q/LYAV1FeAGIS4Er9rC/JTLtP4WrSpjUHgUncpCKKgbCMPRodnpq4ldnoY6PdYR8PxQYIf8bIp7gMsJzZ4VODfVEwOmI1wy0axJ6sLsAiZT5f0tUhpPxiDEe5yQ7fio36HYmJiKO6A6CEQzvkGU9bo6yJ2aW+JuamZyDipCo0MNhaLwrPqorhj6BaXfiYEpCVJzWspCvO3kxu/MeCpJQ1hi3shRMVLaoqmHAOtjfXpU4kELVp06xK1vrLl+hLIK/6JdkpPbHhSf8kFdWJx4aKqrQsgcX6Cce35uYe6RjVwwTEXjbEEit9VlJiKomwx5OJtr9xeeJ89oMpS1tuj06NnYPfCO3G6JWZhkmFo6NLDKEUSm/D6ogyW75+wndIwxF3+cUOe33J/SohEIZpxhh7HywRQn/Z1bX4H+A+HM/XDuRyBS8W51glAB7TtLvT+iAudSZ/Mv4n7OMFezfB1Z6k5yimM2B+S6R/aSYsR4yjq8YrzxOMCBIUXzKPCxsCxARORycj+EFySO/He+wU/+1UBifGFoZ4QnHT59oYDktjzv+K0ZHUS4XHJahqiMfJZVKPMPRX+/tT7CAQxb9rGUHqnhfwZMGUyrZNhJ4HrPdwxMPVoMsZeelEuMZ+s77OygsWsyNsRLiE3I5W3V/7/MnHOzMUyrfSyK+Ywc7cFhjIoWgKGUvfVp2tPxzr33aDw0NNnIybugQFw1s8LO/mbUMCOD793HmfbEkwOCSFeRlgBRPqG5UBGK4iEB6BFJa84WTSeSnGnWOBgdUPsvOgRv6gw1JE8f0OQgSumk26MUA+af4PkcCTOuJ8DokH5NLL7lJKrE7aXoHoxdIcaDIVxF2Lhsz45Fg0qRJF4Jw++Lr2QQ54sBuvLLEzJc758fyAPu77PkPBrkJ2i4pryEYKpWCDWsSGmdBpYisUoHfJ87o0AKZbGechs7DEmULB+djeQnT92SZWZHAmQU7OBDxxPfdH4LQ2nxDlxmegAyq1n1EOOwk7f6Niz6k5Rilpp0eoCewgxVlPEM33sxRKbE7IeDlUhBOMRlXx4GSDt5E0JMBkIOBcsrw7GVPTSocskpyi0fSndENnLg00l2gkClkLRgE2xOxxobv7OCp+ZwhRQwBrKy1+zTZctNLP7P3XrD3AnNRpUpVqlKrD6r38uO5A4tYksYyklQ3UkomkUp38QRisLZSSIiG8ibWQZ74opeIgIhAKgQ20vqgiR0wGg+5uqbhZCfwJTjFZzVsnChVdrn7b44NavxSde9sfO6R01CpeFpbY6c8EiQveWoKA/KgP9AoybPTVBRj/MPE4TlAjJ88GxlDOeo58B+ZsYVN4ZN4AtbWoC8OMSwnKPJ8uC58y/J6zPgTgNA/DatJGfB4kGOmustOkp2dYoUyZbGUWykAo5rALDgmx5MkCy+JUndEZh8K0G6Ha1nLLsVTD9kFcLxMl8URlLA1eUzO0dIqwHmUZTRifrq6sCWyg9kzu+KdBw5U8LmI/xqS48I4pmqwjpbBk6vObzwka04PPvt1sN2urb1w3lDCr/v5eMnQL+8dvkoWFYSTN0NaYjQRARGBZAQyUeC4rqHW8V9mL+g+Ge/wNYfmDLpDglA59iPJPGTo87rZCHc0QC8CwXkOZa1x65VoikFBeqnCxCX7m+4O6FKZZ6cnsUFo+LAdwkTXa+MTMAyrCdBUCmMD8jkEk/auK1Dlo3t0Hf/eFDEJZAmF/JbjJ60LORCNSyL/WKe8ASqqxzFJ6k4QyPLDqSdQ6X90JN7mINt88vPA9BLY72vaJrrLsk3Mxt8i2UHlg0M3cNqQf+wZGa5EKkNOvOP7dEbwhcABVI/n8azbPTPzjKRfOM3n/OQ1awt7WEM4Fx7HJBBcFyTzZQPheBIpiQh8nxDIROsjSJG+qcpRcwfuE9PTluFSnbANPVNAc2cD1w/O6jPNJhxv9y6w0EsiSHBpGaznJyWmghTb07KLqFk7KQFSATxTEE+klwP/YAUfTJoYhF2dTjIYRJiXcDkarCZIOSvukpaJ2ZbEbAX9TX7DLrZLZPpftCe9KPMK3OcigIMn8i3ex4z3axd5woBMOeFMH3h+yDd/zDy/XbvBLgkVYqhlsNOVy+x2q2TPJ+B2EoUEl8FoimfrLUiyhZwnlSZX4MzF52KCHbF9Gh34zrbQz22m82Y3Fbj/hcNQyvdAV7bEo/HB2AJgnGSJQnO1Faz/b16QnHkTE4oIfC8Q2MCaLyIjqqypj5j8Uo7bTr4rwl8DHq+VDbxYDvdoQ0vPvKAfSnTMt17WnBhT7E3cBU6Myvcbf38f1MSA+BMwsNgKhyo5q6gV37MFHvo+L3uIDlXIk626eKIL4BVc4jSQLNmOjHmW3VGC1NzgmsqDcEj6fNy5EHA54foUWABIPDKQOj1/SOE+BatsfE/Y236yd1slu0ShZK1BQW2c41l7Czz7lq26e5Ss6WZOjocsghUbmj6FtizMvE/oA72kj+d2aco3zwpSWCTj38rISTQxkYjAXyUCGWp9eFLZGDnFh5Bkdsv7s+aTx6urq+BXc927KZw3w0a2GRdr4D0n4Kz2rx3Re0siNMjxUfZAA67RpLvuLXWWez4qK2KJf2mDM+B4R093VZZV1rTZvElBiVG539yyJ1i0j3FEWQV7ytl/fyTplPOKy85ekIf9WHPwdU2esLCFOGuQFetW/UNX74fHPqF4GfilTeeL/UQHTfnBOTrr8PhzsLSgrChPtglPR4EnTLJfyxoD0tO3Rl4khS87GsvLqs91OeaTgiIeOcvOd6ghNhfs4GF282J5fGQycUDCPB25D1lClWUaOH7N1lGurhPlB35Sbea7Gydsj//DHTkPJ1Kx43XcT2xu5MMpttsgSg5udgCXKlfRX0TgrwaBjLU+aHLHms7uzamN08HAfCCwwH7g8vbNudzZyDZfifJUHXsY7IWlucPhB1bQnKMDzsvNPY+BisVUNbVqni3/DHICpxLOsffYLNpbLlhcCxGFHaL9D3rrfuEgaTLASHdnRlzKmdaTnofPIbzMKkutUFdfCXt78p6p+aYnOlBjFl0WcJsbmDuh8uqz7MUAr8XJPmDP5Ic8I1+4I8ww4I2D3rq6kfyzNez1+Izft9lHZ8BVBOVQav8DJ1AeaIm2Imm5OHtxUVWNUQ2GR4zf8lmj7TFrjwgdQz21m4w9booOLCJSaD/I77KWHVxrDEdyjG/aDS9sBoOhSJYJGeBaowG2StrV12iZjmHssa3553aYtvBofeSSTX7mUvniCvkOmmECttZm61SAjk76Q+BmfnPPXbjfh6vL9gu80Y7hlC22uTHLbnPbAHvlgvzoP30f3htMhbfoLyLwehDIbF+f40UiNzQevX8OPHPyRt1rZAMvb+9bpBsHPeRE18lJM14o3YG8Ci5SbA8IrpXt7j4OFUxuDjvU2nch2HDVTc1aW6qs8FL6fPYmE7Z/xz6o6W1LvEclVUay0oP4TTsV8lvPlFmBCijiHjXBVBf6W5breqcp97X68iGc+NGOvD8Fl7gc8mW6jj5jwoUqqTIQxL/EYDw0Dg6DBEYbP5kE99jn0dQSeHIIGPd1X6mROR9aH/uRRVvdUbdMWd13Ofk6/UyZUOq0srtWduUZPfixQMOanYBJCt7DT7rN5yotGC4tyFtbiRw+3KluutLK3hKUwmUrO6ZSK1H3LENNmiqnTEAQzaVHvYf5iKNyY08Heb7TueC1Xqi0FRC78bw1ACz7dBZKaFqvNGXwnAMfZYTQt7XOnutxkW5Ls9siwXAcHLlYC1IUZ0iP7avpPrc5M8nkbCWK4xfkDy+B5taDF+7eEQIvU3DZYap/6Y7cHZKcTPQRERARyBSBbLQ+6ERKa42Hx01Ja4mZ5iZQvNfIBqY8OzBW6rg14pya9S0tBuCjIrhM9WGZtvp4ps/ipZQalR/vHy1xjXzJvblH0ivwhR95iVJ9WH/8YyWe8SwKLa0HA4ie/5gBCxIouAlRQYR3P1GZ/uqoamLEBt7cex4gweYoYL9Iuf+AtvrTo+uX9KbkUNgAQnf5NnbTYnN6fIukfxXDC/drj+lqT2tlYEmjqqPleefAtJ/+4ysG3bGp3ds9R3X7bOanDNiW0v4kjSrOTjowDhsYVUff3CMXIZbEPoXqkM5QpeF7fi6WfrayA43bvXDJPO4F99mBbBSKNDajhdrum8qKUZtjamZungzMgzoAGTtYpqsGjGW2XMSPRaGu97bSdW/EOe3xLSyBMQ6sQOAWB/DS4GFdVlWUnz6f7zsfNt24oRiy2kGLC4DLJOC7jgd1J2v1B/jvJOCjIfqJCIgIpETgb/7yl7+kDBQDRATeSgQoe90nvbMMfmzgN21CT0bfSkDeAqbDDyuDWzR+M6BPvVfyFkgisigisL0RyGJff3sLInInIhBGADzvZgPH9CUyXbWo8sVaISIgIiAiEIeAqPXFCvH9QoDx265CKzas1HB87/dLNFEaEQERARGBTSOQ3b7+prMTCYgIbCECDOmxXWFfYc9XgvcjXtvxhC0USSQtIiAiICIgKAKi1hcUTpHYG0LAe7W68TdLNHf+QYJrLnbX7HlDrIjZigiICIgIbGMERK2/jQtHZC1zBMCRMnBLQT4mKwZXxhq34FWYzFkRY4oIiAiICGxfBEQb/u1bNiJnIgIiAiICIgIiAsIiIFrzCYunSE1EQERAREBEQERg+yIgav3tWzYiZyICIgIiAiICIgLCIiBqfWHxFKmJCIgIiAiICIgIbF8ERK2/fctG5ExEQERAREBEQERAWARErS8sniI1EQERAREBEQERge2LgKj1t2/ZiJyJCIgIiAhsRwRIW01pSUnJgZaJFC9A58q0u6MM0C05YYUPOW8rt+KohyKX1I+CR8o3dttXEARJeV6ffmbv6TY758OFqu6Y6q/c3PNlIa+5qsa2GMGrQNN9t5fnKdmQq+UnLS42W7xqYOKiamOAc46x7LH2dQ1NhV8lx470T3WqcyYGE25DGTclj5h4eyJAeUYdz5B9uiqVeP/g9iwhkauNEZh3Wr8miX+s0YoXam0MlpAx+LT+asB5vatn1Mu+Ir9lbsVlGXSr29I9Sr5leQPCtH/U3Hnd4ae3MpM3LONWiibSfoMIrM6NXLO4flSjPqbK/DnmN8ivmLWIQDIC/q+HLUNLGplBuweNhiqq27vVDILJ07wsnUxqG/psZ0EStD5DTg/1XLG5w7PfrQWTHLPcOqY2Fm9tLsnUmQWnpftz29OMFmqSk2fl86ZkzIpJMfJbhsC817f6lrEssisiEI8A7XuxlIwJvk+j3Zfs/fb5bGdB4vf1qftdzVZO5aN7NPoyYmvBDvlt1+zk1uaRTD1g+7kprPIL5Lpj6q1dI30zMiZLLfp8fxCg/P7X3mq+P+iJkmwLBEI+v09gm4BtIdfbwATfCn8+oTnT3npa9ermSfvUlgiB4RhNwbV1ZnbYPFnRe3hzFgO58IjJj9S3XtArF82V99y5ENgozTaQEQFv0N3/cmTq8ZxvkQIP06AYvlu+X11WrT+mItYX1RAE2OYcM3tDhOHGWNM+ynPXYnPMeBdACaH4LsX+Mn3tGa08uYhW/M4vbzmmvb7fk/QqghYQMrlS/fGpU0d44qZGi/ZPjNi/eujxB4IrDCMBOcoUH35U8Wm1dm9clsA6pvEBjR5qn7h60Hejx/zljJ9C1J2/7T8SK0lcPsyDxp92uBlM2z/ZrX7pslyzOWd9JM2gBbL9h3T1dQYlHPHR3tGB4V8/ZOXFiPdUmpP1xnJZElHh+AxR3rFb9gm3x78ESgXNx6VFClWZznBcI8tPjRMXMtly4CJn9IIg89aTpVbgHW/+kimf6XOinjnujjjdT32Bl+GKI3tfpTlSrS+LR+YN1pxV0n3f5vjaM7cAYQRPMBD/oFCqtfpPdWyxrrscao67s6xxjEYOtE9d0zGzNsuQY+Z5gFpDMUKh/rjWeEZNSBAE7IQODdya9ACIkHxctu8jfV29rjipnQjI52ZqDsBj0VZTZfYihGFozIg5zZct416SJmpu3zXKgTic22yjpgOTIyMTM55vA2ypwC5HBkrl01P6D6KlErCeqLa84PJjXG0HStoQRKJqeTCgxxGusJC9xpE7NbLYUswQxpDfcvykdQFRNoxZTxPktNVyZ9zzfIlaQwAnipKK6p8ZNIUJjRvybHsw4/XF8KxQHjxiqD4sSypOwCqKhNhO8j/TdZLJglCj9eWXPUi+tneq+yDpsn0xMv7Yt7RCM3m4rFhVcbzWkNC4YsUX9O8ErZ9HHKrpP39WzeqEV4LmFEsMU5+qeGKxQ8s+ynV9wHOgRbVhf5eKGWBaWd7l4UwQCg3W0SZltAanSILKtE0XzocfaIlaF6aInLO3kDLmxAQ11dvwC7ufXQpGcQLU31fLZGDWBT77r3Xd/6ddszNCNw/Ng3+uMXTAcbGua5ICrRXLx1Capha9rpvemSfkjV/VyGMaC/3M2vKZxcNukkDiOyFx/2PwOR1fNV3rM8gzKdBVv+1ig/kRRwXDid15oWBw0e8G31d3x89d6zu9nieaB7NnVtcC9zpbrrtZe4wk1RwRiPsfjYq14Gg0drkpFCsAVBiGCnjumee+fXXj/x5f6qsz3Qsw+RgGQmiafO6ytXkCa7f7K2MWugTkk3Kbz5tsz1n2MVxWtGNtZYl87naA756m/Vq3riitUAVFin1yetEfWIG4y96TokielNgRljsbPuOhiv1FewYbW4a8HMIYIdsteRV8GfBOge++/XBr/yWdLNrE3lTNWXSYGnqci+xkEVScoh0IgPGFB3zOUUdNX7+xZL27zqnmsKXArJGTXc1tDhK2BxRdZehFr3Ow0Rvsv30OvXWu0fqcAQF5eaDiUP5H9q6nPvqG1RBrmyYgn5usOUAcrrBCa8z/eiwdJrb7jXObbdQh0tEGeg8SEpUAfU9goSC1HPBOgs8x1TDYH27Oefh7SjmyFHhBgfLDCuUEKCtUJk3Tb2cOowT9W7bo6NWg/05X3VUPDTjB8rA/0/RywPPA4nk013KjX18YFZx0ttWZJtZ5liJ0kAp4p8E3fr+8Y7BTC0d46w5FEdJxsaFrKtJJrqTsJGOTgb9RkBQ4wMkTa12zBTQwyFk+ytBUYNZpmXU9PDt4o06Ztv0nkMzxZ7zWx3XtfTkSyipZcK2o9pz24UUn7O8X75vvVN8+Gzewy4palpFlhkvdWSbJJfoblRFMBG3NrMpH9+o6/q0pPG8OgYmgufOywz/vMHXIRwf1Ec3GKn2EnrtpGv/vd41XB6sPsYNcOuD8vMU0FmCe3Rqequ4tj/Sky86u8xbPCiTe+m9NOm5SDoiPmU19jsBjc8MV2WjHhnaatPsKq/IluLquu/VkePkBrE/YLpssjyj39eae9263H4hkyrWG1VnbTQ9aamg5pgIs5iUO2+NLCozKgQsF7N1zdEmLFSztgPkGQ7quNppGA8yLEXOH/7tZTN83ZiyD41z6haOrqcu1TLtv3vd/HJ0ACcdnKGBrbbY9B8ZKSkNbe214JsFQs/aeTrOLdHV9ZpHdaUrX7kuM1hvG8Ey0UNd9I2aWhmTJZ4pKTY2ZWJWPEoebuptZxIBbJV1Dpq6bXnKyx1SouHEuOhp7EzWH8Zo/63ICpQVg7Gg3RmZIFDh21NHrWvRaL3a9G3s+KPuakydh5Xrp7Lm6JKsbuHFShQMiyx7Lz1usT2lybLiLCnr+XNF9h2tZDDnR09jhCKx6b9126zvU4Y5bQD43X3OAOGHtxSw9sHoomfacoaKYQCTSsFbbdKMmR009UOVjytPd3WDmyI77GdI91GECoHmud9rUt9n3rwldp1UXXiVCVXU3esvTarpsYYTZIq9mB0wvllQXBpqq2I4F9E73uhouu6gV9/BNz9E2FZclPWnugSofVzd0d3zKljJwYF3hbk/noBsUq1mt6j0Su3bEkGOdPeS7NX2Dp0AnCSBN1UmylGJd3g/gNIVhfMOdnrViY//FanUh28u+cJjbexzzjP9Gl0V9u2lfWjQSqeby+w2d12cY7LCxtoQTj/HfNoPh9PfNvUkZaZd12Atm+fnq1ivt60vlErCv0d53DtZ4sLdiexzZV4t0B34vUn2lv4ZT+aA8MJn2fK0Gtl56btYXKSDGY/3cBeaaBZpWc3tY5YMwQPxYe38jJE59ZRlZ2Kg8F0YsX8FRH1HV13dmfccBJVQ1lzt0YDwSIsdvjkfrRR7CdsT+GQ9uHLzWpD+sVpWqlTET8pT5hQK+0PHezogCQwnNudqDbHPzTHr3N/c3sSofOGyvrulTNI7zTwAAIABJREFUJfxrcXYOssY64fikJweGnwLMCd0v+5vWFw9RvMTQfbkGrrIu2IdZTHJxWfLJn0XIOzwE11HQ4rP9lyKIgahg16+hr7UMoMb4R4dd7DoAdG+i5lBfDdjnQd64tg2U3fqOA75P33upBq5DrLiGR/wRFkG9ybXmLHqDZbByhpXBTpWxrgJqAMbrery7fr1loUR5k4HV9ZR3LhA5+iQgn8LUHG4oA0aH00sV3dbuMzp1qUpdwi1ib75Rk66v2Y36PdWt58IqH/xCCbXxF7Wwbof8D6dyOYSfLYxcuVNP56TnBntPRDoW0DtVtdaWwEDqiSdaRr7ZOViX9x5vOh0pZfAzn1Cf6es+qVKWKLHVIEcw+m/Ajxg+7wdjTajygQOd5Gf1Gq4/We8kExLF/qRI5Gh3Xw2n8iGBvbr2HiMc64cCjnueSKechsJmg96Q1g+trSGEvsEQ3k+i3ZbB9Z4kO5kkGFFEEIXwkxFSbuqRHYUtii2gjNlyuOpxPYKVGfuJriJJLxLlWnagSz2cjirycAboj/WnijkNGMkSUyqL4N/USzLc1TMeJ9gCALqr3KCL7hFEohNHdAfBKCGDFh6YeugH/aNEfrQ6aXKbr9Ydhnwz3iluEyFCHlDOU5/Ur68wrwek+QvdfyxmURpExOSKH7HxcY0OarJ1R8i5TjBIRhq7cHzS7okZtos5ajgUlynwQ4uP6z4E/zOeqZnc1H6OfMYKD/5+5pyB4yxUlYAYjIZrPgl3bjOziV3Ta6w51MzkHMyeqNDHlx3ksfiojj0TFJh2J2qYHGpOcuWUyd9l+3q0NKFlYYo9u2HAChWpOALyKXTNeS+pBgrQqIG5wKPZ6amJX51dtxKAiICSku9nZ8vkf0fH8FxAJv/mCiNeYTiW0Pfhir2sDxVt3BEGVpaCSTVa1TBgHexvr5IncImqTyV2kvkKrpOko51kWsnkldWJO9pFFVp2ukE/8fi29MA8y9gb0vocKMWnjJHdU2qCmwalRYs3ENO03x0buwe/keuRYQRvzDfiKYiM2XL+ex+3na9Q7o/X4SyhAqWc3dai5n0JCka2T5mojhAM47yYtXC7WPSzW76o4n0FD19glLAHegee+xPbUVxsxv+c7ZYL9u9b32Nbj6EoVkDOme/8CZ23RKn6kEcmHk6iXhKp/D2211l3O97htsJlcjabGAc2+MEvsPcZ5l44PkM+LzsXwt6X8+1m4Qqw3Aqn0t7vcmn2ufIZLz3l98GOWbJb/n4CYjAe+r5cAXUe7U8sFeT11ZzQd97fQRjRYgXLTIIj5HKW80gTWA/OoebkK7iWsk4E7BCzme7ek2iyGm4nDJjPsE5APoWuOcQHJYk1UJhGDWbJGF6Q3Dx3vMOu9q+FwthwCGX0b84wvqdMbNqg6f0d25etMVE+FKXsPVfLjpZ/7rVP+6GhwUZOVpxY9IAwxpkxRTvJdETw/fsS4QdDasUett6+DJBbfyiXz4Y/HcfChmHqOqNmygSXi8Hma79dN2RIxkPYLF87tc3KCEzPAomVEcV+JIMmMKnc/5BBqDlQfCdP340g0t3gCgywRhoMgmix17zswCJ2YbGUE/rWl0ssccbVcaCkIxUHCAOIg1F+ynAQzLawXVJeKx5UKgU8ktCyBkSL6UcwqTSN4PzZYTtSJEHzk0KAsOBb17vC8blGLYF6DnTmvcaSe/yMssFBCjT7FAynTpYrn/EUl15yM1Vid9IqDoxYIMXBYtoqEoQT2rg50OurOatkEA46EenOuGMoUTmku0DFoZC1YBCgHWtSmkPNATo+AXHOUgSUz46NVhUF5FPomiP9+6QrcIRp1Aiz4LKDox9PfN/9IQhN+DfvcoURGMollh0fM1hZa/dpsuWmF9xF23vB3gssZJUqFdj4UB9U7+XtPJGMqjpfXmE/iVS6iycYVE9Yb0M0rN6ZsM5DI1OvN6v14d5c/Wn7zDUvqCDMs2HzVxX9HyMoYEqICpMpBlsdb3MyLo20nBxKmPCimsuPeg+n5pvhBrN5wLqY1+VBe3gGGJZkP/YGI+XwbAYtwMM7W7x55CNpiUfG22E7+yQSwN4Val8wdQJkYrQ+Z5CdFD1HD57JYgIl4fgEYHODCTAf+mHyfCiSLyizXOb6ufIZL264bCXA3JsXUbbigEFJ2qLlTQk9Bak5YDrF4pOqckf8I2hHucml5vCjkFLA2AAB+RS65oQPXsRyK0TRkGOmustO9oI3FCuUKYulWLj/oQOz3hynsDnDGNdrpCkxTNVgHS2D51Sd33hI1pwefPbrYLtdWxs96pWGQNZBee/wVatoveWqd9ZUs0nwprU+gsg+bdKP1dgWANe0e9DiVmvCPUs2YmzzuK9bRhQ2NybayyaiA1QpO6pKpXET48f/zocTIHBsRdM20V2WPmqa0EjPk2rkAVbY2eWKVJ17GtKCBgnHJxCFXUUgPukfa2Y38YR0wvAZRhsMtkAF4Tl7Gak4KQYFGwgkSM0BypuFcW2Vf+gR0V88qm0D9oQNFpDPra05rNibLxrS3nUFqnx0j67j35u0e2Kmq5Ez9LkALCCMqbPH9+mM4AuBg7sez+NZt3tm5hlJv3Caz/nJa9aWUmGn3uFhawI76/V246lIakkyC3mj+/oci6gSnOILL6YsO8z/sZS0rJaZKNs51iZklNWNzCa6tBN9gMPf4+yyOUMtUzyohIJL3DpuitV1niSxXrt2pyO+QeJoMFjBZ0e84aXFxGTMS7hBAJa6pGH76cQIr+u3cHzmEdICyHWQ2or7roXhc/cu1iQNCS4t8wFMBcFtJ8Cxq+jZO0FqTj7BbfEEl/lhDNth5kk5tLPnUqAUAvK5tTWHlXfTRUN+4/SARSCJTP+L9jiVD6m/Yq9ky8kJCOOG+QPD8H0a3dmW3htjEzeb4KWtocD9L4Q+XgbGFny9Ms11eGD9n+0lttRtSuszFBlYCLAfCTcjI44mOU/wL5XJEz5YmdEYOZYdGLXNbL05QxaYrlJkWMYAGbO/nkr2VJRfq4xF+zmDE98T1to5wa34ni1CL0Ku4N+5SkwQ/7twn4Ktl74nnpzbMpjEKzmTFsDMAk9+Ycs3VCF/jyf0NXoJx6dEpnwfDnQYr5evVDYpkzB84sVyAjASWnrm5emZmG+9rIExptjLDQ6y5FmQmiNRKNnLAgAzczxbIYFn37Kc7+Ex5sqS3c1FF5DPra05rJibLprwTCJPpkxqsMyzpJM4mUMrIIypMuWpRQhWbGj6FFquMPO+6DG/VASy9Cd9PBdqU755tt4WFslSbMtmmUu66JvS+nODZ6qrqtmvqvO3Ef0S8t86z3lWVx9vdrxMl30kjNA1nmLbMoCZ5B0KpaRCu7pORLJrsAldQgjzTU9VWMbqk9c9UTb4ZU/JJQjYhIzpyPKFoaqKQ1Ch049G7pOJEQJjdqh1JDLN4ZzWmSX7tWUs8elbIy8SiQNr2MbysupzXY75pKB4D6Ksgj2i6r8/knREdcVlZ2/4wn6sObj1I9/0jArHJ6Y+zF4TsDxuHUsqFXANy9my8hONvdw1Yel54tYAI8cMuLjC8Fms0RQCeozn1w54rjLOkeOj7PFaXKMJ37SRnsukUGFqDnbwMHvydHl8ZDJx2Mk8HbkPKx6qLNPA4cubdALyKVzNSQXIposmbDG7xhqjxbpV/9DVSCcUiq+ybLSNDPsFhDFJeArojvIDP6k2P+OZHIXt8X+4g9NLSYlz9/A67ic2LvLhlBcSJEoOJp57zD2flCnjtf5za31VZeWx8Nd4e92IzHP9ZNS/+qLQix6AvT2GpsTjlSmZjgsACybzkaWFxcQqx0Mi5DGfqI7KUtm6Lgv92851/+NduV4gwJNn2CtnGVOTTBGCqs/UqoCGWfWYP+t1zkcaIrjHe9TU+AU8U4eX1Z5iTzZn71BVjVENlDHjt3zWaHscXWhlqKd2k7HHTdGBRWBivRHhQl09e26TvGdqvumhIjqGWXRZwM1rYOCLyqvPspeivFknHJ/Y4fraD0AfQnvg5YDeGJHdtouN5qc0tUC+U7jx4rmUM08mPQ/Zm32ZVbbPEoRPifJUnQZi/sLS3OHws4cOoAMXkF1u7oHXOmGqmlo1z5Z/JGa6/4WpObjWaNgLYXT1NVqmY6rfY1vzz+0kqEiFR+tz60zSMZ91mIB8ClVzUsuw2aKRfcCeyQ95Rr5wRyo2A15z6K2rG8k/W1MKVSfj960/uANs7NldSN+0GxYZGBDwaF7Ir4AwJoqPK+Q7aIaBN2ZapwLry9IhcDO/uecuVH+4umy/wBvtGE7ZYhsXs+w2tw3AqQ8qP/pPOc3EEgXb4He8NR8T/A6s1fMlAQva6wFY4hCbL0W2frDaaSbYU3xb6+jg71OciQSL+dHNBUkGA4is+XxtMoKOT9/9y4UGk93/wm46fr+H2C394dqrP4Q3YvBSY19bxJYiaykQZKeu+woF7+En3eZzlRYMlxbkra1EzursVDddad3wPl6oPy70tyzX9U5T7mv15UM48aMdeX8KLoHncQBL+TJdR58x4cqgHFgVIIlwfEpkhp4+8l9N9hdAidY4r2LELgxZo8lltkGhhPZifyYiy0oP4jftVMhvPVNmBd1pEfdUiTB84uXtfYt046CHnOg6OWnGC6U7kFdB8HoTHJaxl60eh2O1HJ0gNQeVG3s6yPOdzgWv9UKlrYDYjeeB023kCqw44OrF1itNcMj7xp2AfApUc9JBssmiKTEYD413TdOB0cZPJsHDHHk0KBGKAcZ93VdqZM6H1sd+8PxP3VG3TFndd1lPYCq1EnXPMtSkqXLKBMpNcymFuZKAMCbKT+jbWmfP9bhIt6XZbZFgOA7soNeCFMUZ0mP7arrZm0yFdBLF8Qvyh5dA4+rBC3fvCL2CMLGNS/Uv3XGPOAiZaxytN2/Dv84Orm36mWOmL2m9d8uEfwOEX6OM+KGW26NldtuI89FcAFhaAPPaAkL+geqjj/XV5ckXTWQHBvZBzcCoOvrmHrkIX9ci9ilUh3SGKg13v93GFFGZ/uqoamLEBt7cex4gwc4WoFKk3H9AW/3p0fhnATcmtoUxBOQTV7fcGtVG3twjF+ETHFDkUo3uU706/bMCEQnR0vq+C8Ge/5gBc3E0XypTEOGtQGH4xJRnB8ZKHbdGnFOzvqXFAFsqMtWHZdrq47r1l9NyxFuYmlOo7b6prBi1OaZm5ubJwDzAAVa/g2W6alD9clyKyFGidMkE5FOImpOOVaB2NtWoCd3l29hNi83p8S2S/lUML9yvPaarPa2FxVHV0fK8c2DaT//xFYNydx0Ajdu9cMkM3/2DDygpFGkWuQSEMQGCQl3vbaXr3ohz2vP/t/c9MG0kab598ql9D21HebKV3DoPCW9GMWIUZyJhMYqZaGGQQjLaODkFEg1OpJBZCZxVIKMFogv43oBz4s9oDvJeDKshRpuYKAF0idmXidElZpTF0UNGmsRoEY4maySO1gW5dWh6xXu0zppX1X9Mu7ttbNMDXF6VrISuqv7qq99XXV/VV19VzS8sgYkLbO27jfD60Arb2U/M4uNM0qOXeerPDjcODRUOekbA9wXPYoEXNpbaai5VH1E+giJzyhnm/Ksff/wxw6woG0IAIYAQQAggBBACOSDAX/wN7hT+Q3/1hgugORSQ8Sub8ubLuBSUESGAEEAIIAQQAgiB7UcAaf3tlwHiACGAEEAIIAQQAluDANL6W4MzKgUhgBBACCAEEALbjwDS+tsvA8QBQgAhgBBACCAEtgYBpPW3BmdUCkIAIYAQQAggBLYfAeTDv/0yQBwgBBACCAGEAEJgaxBAc/2twRmVghBACCAEEAIIge1HAGn97ZcB4gAhgBBACCAEEAJbgwDS+luDMyoFIYAQQAggBBAC248A0vrbLwPEAUIAIYAQQAggBLYGAaT1twZnVApCACGAEEAIIAS2HwGk9bdfBogDhABCACHwDiMQbC8rBuGsW3qv/CbrvOitLQF0jzQ/3SQh9V8P95yEVT7RHRLuEE9XxtZWRPHOPYacfuQd84f+FF2iaAbcP5hfaCmznT9XaQK3qucc4uHeM7XeReH93eWuB90Kt73GA80fNQfYu5Z1Z/onrllyLjD9i8xCYGTY9wTcevQWXHSIE3uN5pKPbTX28oJN3Ky4w+qYHgGU+q4hQEd8D57RB07Zj27iMtx3DRRUn3cDASo05pvFDtrOWHTvRoW2rxZyrU8Fv7rSdC/Cql02xGnqTcgPfuNPmv9HT/X+TShFcT1XAu6BoPV6Bvewi99S6W9yorXhCz+4fFYIDE1Ggg8jwcePKv9hwHVMpU5zW+uoElSIzH8eBCI+98AIdtqCtP5/HpkhTjNDYPXV6E134Oe11tOW9dtvddb6dj24G9dgzozIjs21tRWRWvjJh+2tYpUvhmk52N3iDq2qhhw57r47pxq1LAi98bQmqXzRqwzp/6LJ8zoLYumzblsd07OFUt9FBMi5eepdrBeqE0IAexOel6uePKPlWGXlsXLztl5cq4J0trYiyVqfCXm/DtJcJfJM9s7RyRczLyY8zRWCTWVhxPMHUoVKciTiEe/NEfXIZcgX7f/6bpif5ROWur7xyZmZ5+P9ly0ER4CJ3PX4eRAyJJkm2/bUMQ1DKOldRYCZn5t/V+uG6vX/OQJUJLLlmuKdhTzJws/M+J8s81U1nnU2Vhjhg85cfc0RfNERhEMtJuQPkGftm7SAEzqCpqBiZWZu9z493l3BK9ytgHkl+OQFr9PxDy61fWZl62KwXGy79Pxk7yx8oJ8/CaxU2jbjxIBh21nHeKj7V/UjgigVUD3gGL1Xy0pXCCsR//27vufh+X8l6VUM320wmszWT86fP2FKkg3wOjnTG8YM9sFxB+Hv7XQ/CZO0oXb4gcOk4UlRs74Ho/7gS+AwQTMYTuj2Gd+3lJ+oqi4zZrE4tEoGH3l9/xJ6tQB9S7A8wvDfCs3WyupzNrN4WU9wpDBfGfecpkd6urx/DJOr5saHnjRtFPgWNYzT2JG2yZs2ZsbrHvRNzUWpNZwwFFo/ueS4aDWAuqxG/YP9d5+GQC2wPJ3x4MfVdfW2IllDVZHPDEWgIE4s1Hmsfoyf51MP64sfgkx4eeeL7gohd4Z8KhEHcdRY/bHOUIpEWFZlzwtXmTidIV888j70h8LRpRXWN8hgPFRSaas5ZTUktQJ6vKGsPYgRlX1PXcbnvV23fKFFWvtJ36TTKpCjIxOjI4+fhSLR2ArDaHDdXmPh4Y+Pn6uqPCATR2oWM22WGbRwaSGkt/Z0bzhusA+NN5qi/v/Zf/dbUbP5Tb2N5ZOa9rqHlFpaMjkV+QSuS95h3zPgukRS3JdYeNhaWXXe9kFGK+NBZ1nDNzR+tG3iq9L5oa7e+1MRCrO2f9t3IiHBTKUsRSzxvBzy3ff5/zfodmL0KvuZF5iBD5n9bLkxT8j0tPnINc7RC8PeeGpKPCCBd/nihBVPbursexnCyHzT8EtnkGGbn3U14vv69ggrO0YLOSk9ean+jFnayJbDvvsjCZ7xPEIPuqYP2a5JbnL4a0wL1Nwb/+DXI/6ZeZJmcNCZFJUev+Cwl4ikIK+I0IebLo8OX9SHx/pvj0+FF0gadFPABe0j26Xa6qSeMCXECglJWj86ExLmuDqL1bSefXep9SAWnGYjIqHQin2zGtF6/vh37hHo2UcFbvWHjjRbEjJWYDJt1Iqv/lgH7yeZb/eMNZoF9aP82lwoLFiKjB9yKp/LaLBaTb2zEfjAhENhxnY0CyUlL4tQsY5y6hvEaH+m1+nkvqPARWOFtXIku3PQs57m37pDrNbAQfe8B/thmYxMg5/f97jxZo/dlJCOFgeNGIuvMf8ecjtbWQmKAx0aaGgeDLOtCChR4z7ND7G30fAk+D0aqWjpu2EzppcOR2zR13qly7/Isgr0RcEubGWJfB0CP/+Yr7anz1Gc+BK1OCultdWlQE9r9zdsHTYqAufeYdbIpx1N130kYJXA8VWGXgz7BxrCsb7hy/jdyw2eOQYkaLUYTVORFyMdL+fpIY99P8ci+696fGYhAlH5iT93GQrNReTS91HQu2O7jSagWTXagsSwNQs+lagDWYLuWKdbkyUyYPDOm81EaXHSf6OhfZx1mwGtIN+IrcbIhXAA/P4wanMOtCVshxim1WqBAJk1ho54mq57OX8i2Ma4sBrxXrvS+4JrmqAp7NPGY7HFSBD8Hj94cvlmzwVTBl9pNs1ygxYugwBEcK9g4KMIex0NvS/ppGYzG12701f6XevFGwGwAk2AprZKcy0tRHaPOctFSkVFPpnoWGtDT4CEnQD8pndpflgio6EJ8PP5LnT3XRFMm0oV4uJwKBmMWV2LPmxvvsXZgEVgZyNlxULoGXddkyfCdxY63R6MWaHIuaBvLvjksc31u7ZyTi3uLig8aKIXI9EVWBXje3oc0+oNuxRpspFZwIiz/RkQHU0GOq62+hbgJ0/k4RRNA05G5oKhaL+naR0r+qW74apH6OB0OjBlpCm+a3roc9wcqD2Y3B41OD3de/GaNwKnUqA3YWBnMu2LzEzN37jnEn0IsurwrYqmo4H2huZxEtOwjWcNcBYJPugOTs64Brsrc5p/i7t/OroQ48vW/KIgiZzOmK/Dptlvj4lGFzDsAxmT2UTE1gouXa58ds0PKS4+6r1XNfxZ0swzG2LZ5SUXosLIBt9XsE/8MnjEMa7boaNvlrCjm2JpG+uIacyOOxMOKTBM+GZN3R3QF+vKa2zrdVv2d1x1h1Yw/ICt5b83cvMS4MIZGe9t7fFFp3uvfGkccwpOl7xCZZa+8YQoY+Vl+/EiA6bRw8kxGMGNt7IqHzdUNLqahKHoKhkYbO24EyafdrXmFw5d3qibZsK9v+3wg/EEYbY72xyChYCaHelydgcWw55rHb9I7P7Q4H/DFk2/Gb0dZMynG6s/Mun+WrtPL628+FmrYT/1t/6ur5aMdf1DNRYd+FSXQ+6/b/a8pMnx2x1ULPQfx133GtnZJENOdDU4fdHV8N3hYLXTyn/WKvKZlQiUama60OepibjP1ngWMF1Z8/B10c6XrPhUIg7iiBPd4ydkaaSv4UJHEMwiD9jPJ2bmYMg8wKp8jc76a2fLBX5uzywGBzvbPdNRX3uT0bg+eMK5FhWnp4YeRPdaay/YDhm0GFHIFkYHv2RVPiBV52qpsXBmAoYMeTtb3S+o4K2mrveG246I9KaMRxCRXbNM28KVyIM4bpRCv7rT9WT1uOtBfeV+wBIdHe9quOEn6dDtnlb/7KvCun4n19KosMfZ4J6mqcde32flCaOUinzSz7tYlZ/8JdJR/9cdXffC4TvNrQVjfSc3mvFzDX11xnsnhJfYm09bjASmzedis5OyAm6roV4nq/IN5c2dLdVFLDOw2+lq6vSTC76ur6yWG+yQqNjhGXLw9rl8m2to3ayoQDZrcbPViUd9X3TME9Wue5c4AxJDBt3XmrxzTPSh50mNpZrXhtHRbqjy8QPVzg5OyvBtas5/u7N9ZC7s/mLQKrJ6wrS1kNsVZX7Z7PnNKfMeUBYDTD6t10F/S/kHHpwvS1MXLTd7oZ/2dqxobdeHHSdN0I0RcDbc0X4rRC0Hur70Wb6ybSRFBZDE6/oxMiaM2zXErmT7tl6f6EdF2RQIZhbFMESF41Ix34Aiw71gwrU1IfZvwsgGI/QE34FzReO79Yn+I/Y2kS1Xvravjoocg46gdRhOvwynnW3HEk2FCXn+KQAG0bvLW3rbeJUP3tcQptNtfQ0WABD12D26IJDk9CXojp8vHXd5XBdt1hKLtRj0BuDLCd8ehBMCvOizvhsi61OeofxKT0sZVJ+RsdsBYcylyCSIpB73j7wB/+sqr/c1ihYFdAeru2/UQlPBSuD2KGuSEQXy+RRzrm/gur3yqMVyxJxsRU5R1GI4VtbTc5FV+SDssTjqjkNcmHBgel/9l22CARk3HGu0s7qeCr+KChYU9fjMUgQpapMqOjc+U1Fbj49Hve1dQdByCIvjHx3rQznyUT/bzIw1PT1g+Uz4wvB8q6PTaQO952r4tkfUCjRsjngoED7U8rs+x+lya4nVyumAhVH3YzgvMJyBYlonZbDUcqTi5JM7TzboObJtlmlaeCpQhIFC5I2+8ctmVuWDQBhPXrUfhn9RLwKxY671lqYz19bZ4EA5Ph+eFbpcFfmMR+7e8oFZPv6BI+lLJIyVn3NfIh0cvBuW2wKTK6jlRjORqZDOMXCzsbrCaimxmjn9l62UZdAxL/1TULZE+eU2XuWDJ9jtOFuOQQCpP/pz8RzPFkaOsXg0RB3vvsmN8mEUbrA6Lp9ie4NXMy+FPosKhWDXhJfWNgpShpl1RZXNN1rKD5qt72Ex8EWIw3IkZnYOtFezKh++qyupbT7H2tEXZ169Tc6c/MS9QJOxwst9badZlQ8JGKwXu50nIGt00PdkMR2FVGkirR9nfkg4SWpxgm/K/Iu8uQE+ARuF3NSXin6K+PjaGmaovmLnF4PpoHtgQ3WQgpQGLMAYDPnwZzTo122DKbLTf0moHS0uWVbIw7VCrWl6I+2Ugv56tIp13LCsDTOA2eQNtiPYb3ddFe2WBH4aT9mO9ZjdJluUMpywlQKI4pFnk1FpCe+BTeGJMRKbOOufgh0wbjktN+Pryn/FDtvp0NSM0M1JKXLP1NTTVzCH4Xg1HCgkh6JTtiIYE30elDKksdhrzIKKkb6n/KwxnapKfsVo+gXbAPAS23Gud+PfJAr3s2ahFUoYDKrHZ84iUK6VJDZXPjcgzkS+bnVDURLWq232gvXc5Lf+EIjGlcRBWKtPQBsT/SIA8yQHvawFRiefwUNd5GICL+ZZbRVQQkx4kluZkpJLPOfcLOUtPGUZfAJxRNJsdIX72WakMVb+HRxAr4f9hYWwpTGxRINSkc/Ik8kFQJwor6mWLajpKs+wQ1syEJgVM5Tz83fwAAAR90lEQVT677jWKqOTs5QTxeBH2iamX0xOjLVJnbrwQjNr6VmLkbBnyjLkCqP5tF2y5oEXmTgZLcUEXSCMk9alluAu39Y95OnrdFghuKKgMdouSE+lMR7gpkmZVZAorfpVUmcEP7pPPoblxOdD3+Wip8Rz/TVM9imusy9eCoinyZeNkIrOO07y9aEm+m+/zIksUd72YHz8IfyN3hKGEWm4+A8hLXlYw8ZyizzsnxsNhNOUkJSkSh0zLSxFvjg58kUXWFTE8syf/WOjWTzWWYywa1R44fucTTWZAmE274cx0TnR+Q1sFsMHxZL1DyoyD5W+Zp/pfUnDh/nx97lPiI5EpPqapSeE+J/D38NmgBdx3WJSIijWZGKJ/+s8WCdLCu8dytq3Ja/QlJ9MhNByg919+5N9GMF3RrBDEAaMVtmgIp+5iiCZ9RRPOfOZgh4XDZYqW4dgk9CdaHMKnzCbxMyH2X0EhoOFSs6wpiIW2NXI/AJHKfEvYT4saYFMZI5tKrsPHZSIiX2psKgQ6lHmz+kbVM7NUt7CJRzLH40mliVR0BLsNERjLCyQJvALyqt8g1KRT2ouAi1SoFDFxTSgzCCXZAT45mUSNGbLYUm1cpaypDzg6quTTC9BDrCszpa3xmTfCecKI/CLkWhW0FuCZXjIB/Bs4PneY7FASJlwX13zgB/4MW+MX56p8D1Zrl272N5kjclk+mwqPiR3enuPm58w0QXY6WYbxMqcX0hQJpFQliCZM8op58sqlrDWOconW6GFOR4d6RuxDdo3tZaeSeGJGsubVFwkBYUxQSbU5Xk2W0eGirI+WuKAEz83GmQzYXnZbAwTudPaOw0aKJiWuWpZLb4e3i7FIA5MwHmk2JmcJHpiYjEwxxV/Fvq/la6cL/FrIoZ9MpsBpLRbrwOf0CrGDpNZA5diWCW5gbV+j7KRXr8XlEuBeQC0pIk+BlxvSPLRUCQuiQQ6XhIjNGxi10Y2IxX5zFUEmVQRy5XPdMSpQNcXI1CvFNhdTbzHlZBfWP5b4H2tlenE2VZwQJQIXEP2SlQLaHNss9+r1yt9jDi76EhidAx+HZJ31ynn3CzlLVy5LqJYLTc0FMXwbOURCSNiIlHSwlTkk1+dBNtbThb3pmaaLVFhgC59g9CvL3zyablKWUI6ToUfP/B9OxOeZzd65DTpk5DMEUYNWO2V1ltw1xDHG+3tLfNXugIk9FUKDGJEvtl8uNhSUloOVhUVKGDYf9klH9ZkpUBxnV5BSLsJrjulV9J2p/I6sTEira/BuREIjAY+jXC0uP4SiBAeoINqCmrZR+sq6y+MTN2E++eZ2du9j4/3fYLhgCk1WoAiN8TPgHC4uqyBLWpJAYy9hKEAP7dTJJFt5ObquDTaXDMomR8r7FRJxRTz0t36NYRXd6zFeVqsuNk31vjJK75bYdC9TjMPk4xKRSs+fC6ekgZ4NCvywvpqA8DTD2+BMzcrAuDanYIKF78mNcbwfvmKL6WKVGY0Ve6keBX5zFUEPy2fKamTvhsd/mWgZ02OdofMEXyN77vBVr3dqeHVyKWL/41U4MJMiHezljEEJoSggwIjddiEU5aVc7OUt3AZB9KIlExIMyo8q8hnokGBzcNpWALu4Ap8yKM4V/6k+JylLKJCh91XGjyzbFcMNrOZLIb/KjD7b/PB15nZIWTc5gyjjJJyBF5g675vDj4aHflfz0KvKbAXIwh+455e3GA542iuq1zfcKhMIOtYbZ7iaELoTsWz8Yxpi+f6++Bwe47Vt3H6BzCXEk3aYrEfBJryUXnGpSllNJ5rrB6v9S6ANDo44A5ay3n1oJR583HsEJ5k6dA03Ma2/l0wK4kFHGxf9lPHNLxtcR3XOVkJdjm90Lcqv9p5Tbq8BLPlwfku2FBUfn0ieb91mtooJ/F6GvTCoDi5SQqML9iWpdCHiOmBZNiVg514yl2S0KPl0Ccrs51jrIp8qicChbqoyCdLPXqntes5tBtZGly1RXKdsutnXNz+8wOSAyEUmEsfJYiYSWEHBeMLOEDEUw0QOerqNMv0nKqRqiKfPCnNocYH/ZvcYp2iZpuXMhO61cqqfJ3lsst1QXTILpjxcXvoU5SdPlpFGFMWlGe0ftoMfsAK+2o6GJwJBYGb0QoZutda++aH4ZvV3IamlK9nm8D1m9K3+O6U3z4iTd3gWbyujxs5lyXwSlyyWkZFF4TBV16hdI1qgyI2SsbNYBcfb8RY9vX+fklmeN2IQjbphgOFgsEE7EFMmkNHv08czA92hcqmxdmUIs27iToa60ZnpEF0+oq0JPEz5b/RDjdH4Kba9kblCw/27mPNpwy1nOPgOlHevr2ciT22BCaC8kDFKFaPsyb61CHPwJnaYsskO0iQBmBbhFFavV5p2Via+6d7VpFP9USgUF0V+YTWOHfrAGs3KmtxnVVciyP0nKGeirErR5sJwILPjiD4FRApKeYtXHUC4w89vwdDmoF7VqdZKtNWM1ZFPvUG7hNL8SWqwPWmpRx/5Z+EUy/8qKMbbKJJXsEBntSK334mjKsI44bFgbMDLCfsjc6+0W/Gu8/CBX96+vbt6Zx5Vy6Qptbnous5Vmi+O92dtjtVJoklnchr+jBxnREVei6cWgveXH42GeYJ4EXFCbMeQ5HRBbB9H/xISmQtp0kuEvxLwZWCjQJR5nAIm26jY94pieF9o9ezSxfxD13BE+zFo8HnwiCAOAROJeLDKgW2+HPVhCdcCSFV3VMxs6V1ZJkgH7R2TQJdjpvrXA7J2REJLvN5r6v57xIHNKWqwQbxuiITHCjFl2bDCgMI5k/heQg1UXgg7fq7ptAMPx8M5H+l0HKis39iie83S/2mNuBO7WQV+VRPBAqVVJFPmt1gDb4Ag815XcluBIsXHLBXuD1OChxlHIWbD7IDi5X52QWFl4DbIPwa8UKT3FtKlF2dZqlQvspRKvKpe/8gdN0HX+J3ULP+BGHTUgbb0dgdbsYi2cl3GDX1PPeDpVWEMSVu8n4JN5Q3XGI3KVHR74VdPinfzzLh+7BIEwvvRiN/Zg1dxvcUB98bFJF8Dv9Bm62Af4F82NX7NAp0NrMc9rpuCzttiNKT7J4BNrwauFh1por9nWn/VtCIYLfoVS6yqupsky/tlkSBksHWcJ7t7UF/T2a3YYMOdHwqFHfFu67FBdLS//NKjydORHp9t+PrIAkGGTQZHOi4+5rPq6uwlUIRsuz8sesMX8eqmlvrh5Iq111amPh5E3VMR1Y5jXntaboFFTlxtMV1IXXL0ByqLIPypJ/fHRWqv05x2ddwrKzqcofvjXIpSbFF5eX5IIIJ/bNPdos2+WSM3ZmpKy/nD2lIRZAorWD3OC0/GX0K3xAH5uXoI8gJbi4rhyOM7Qzq8amiCFhAmKQtNmrxSQU62aMYNdChyZra0GL4qBLKDxx78nv5XlxwTlRV2Yma5oGgwsBQJk1D2XG4sTIeeTQq2+i3Ehh5ClUa8WF5aWpmIEl1mqWMOdUjVORz/8dlBYA/JnTfK9/yTj/vOFl2sva6N3FEaQ5V2ayUgXsj68ZB/7v0G6cmutgdoZD//yuoFPjE2QM2dPlTEUYZLpGh+pMVR8qafAqtF7g6sKMBbZ7UP0VGJssIKuCblKDEhCaeQR7wQ8XS7RUZEU/W+hrT+YSxnYmMXKsqKyk+cqKWPxETlHLwUv36AS8ZFZBppv32RrmvWSYvx2nyjWBaWFQyhkiJ4NaLDsHcTYcHG04eLS4uO9kwxB2zCLzNreAkdm4EIn11k8851zHbcldD7jY33Nu2p7LtOjwZJXXALbUO2IkzEfdvG7zTCbs6Q70caXV0BSk6uojpFd3yJUQ15vN1rEf3a3eT0xdhx/IwgBPBOpu6oOGLsNResios+ScR0lU67AcA/HSgp8H9XMTPtLfp70fgCaP5p+pzaypJ5Wz2QT0+VRIBOFmLHarS3wXh4TlApKzNTBU+wVWcHROgn2HtRh+k/TgMp+rPwQsXqInWuk6/uBkEbjU03YnSy1F6lzExc0gnhnxbPbstkHzY2nQnRAlzLGYx4AanN0J2TFWfsbvP0wSVmmWaEtRJUpFP2I2zpwAtjjR/7g4sCMoTnHz3TXfdP/hIYIxl9Ps2+hLT1WuTUgbqinUKISf6va8F9uhocKj54o350l9zRxgtRTjDHsuHntsfQYaezUEVyIBD+xWDijDK6BuLjNgKA447u3LDF15eZwAcFjlywx0AnxtuKROfri+jkEMErsOnknpCOvKwtWMcKn1dRdXxTHpmWalibz6YSJQ5b16hroAD/2R2DHy/zdVllx37ICOZYwTs+8on2F18P3Uw2Fyd0TpwNrJ0oAnqb67tdKXXk5vgbovqyPxxlD3eDsP+Euz69FiXnGPtIcdgN38szx6b60sKnsNPBnsvn3QTOv1u7dpKjD9gfY+18csWZZ8AGVndsbaeRbphIEROdNQ87dXl63dhP8QWuVUewnzB5TqbdgTCEQTO4V1O8mq7fyHs+fykd7dhn067Ri2R7A0CwJbW8mWjzHVcxsoWRKjIpzoiMFhKjNhsFPT1DRUjwCmSON0/cc0Cne03iSeYbQ/zV3FG71/51X0FcHd94hq9wh0DjJsv9zljDe3fRCNjrTUP23V7wdlZa7G3FDsZwk1nXK5PM2gGsBDC8nlf83Jd93MqeLP+2KDO8PNd2v8TWwJ3mIDEPKPN2eNQ8CiUsqdOs5RSVf9ZRT6Bha/n89iVr4LUjKf5jAdcYEDkYfRbDjiM+KC2O+UaTYb12qSUdafqqkcd3uhKqPf8L+/mG/VYDNh46bjO0nCz5VSs/b4PfO/BzjMnR43lv/E0HsGMJaW6OyNUPOK5WOYBA4YC2f1hAuMqwijBAi+pd3023zAYjjzsqH3YAfY96fO0a6sx/nITjaG8qbka2jvVDMRRh2PF3SHvCQtszgbxJQ5ZFCrV+vCzvNB/77Dv7rAv+N083CkO7s94z1xaUW0/J7kuK4tiMsqqq2z8tW+qR2bNy+jl7DIRJY1Dw9ZHw6P+FyF4ERK8oKLw0EeVVfZqS06jp0yL35o6xgUH+FVa7G+xzqQmRou2fIBeoH/Mmrhzj1yEN+WBc1YsR232M+XsOVIZBsL8Wf94ie/uqH9yZn5pMQqvGwE+L4fLKqvOZnjTFywpv9J1x3x8zOubnHr1hoy+Abe/QH5Ky2xVgJ/NzFEyrEeG2dTjUxURmGq725Y73E/D4P5ArW7fIdCXckE1PsFtOwrWTVAIw93qxBWnMVS2D5srR7wPA/DOvbdgyQ5eFHbooLXs9PlTxWm97yTI48bqr8YsE6NecOfeXJR8wzaoAvOhI5VV506tH9K7gbxUapYblLL5ZBX5xE1n+8aKA6P3uTv3SBpctEEYTMVma0X12U/MEge6XFjfnJTxDxo9vzP2D41MfRclFyM0uKrrw2rbp5eqi4HtxnT1up36J1/o7Rr9F4yzYAGNC8YxXb+fAtYjPE9vLAS3NaQKKsIoKYIw13nGPvQ9+OdAcHaefEuRkBnCsP9QYbHVVlVtLUhrBkvF7wbxBlvnPcPYbe/jqfD3YM0ditFSUX3pok16lNgGdNaT/+rHH3/MODPKiBBACCAEEAIIAYTAT4xAXLhMC1jsxJdpqVFs8rq+GhQRDYQAQgAhgBBACCAEdiYCSOvvTLkgrhACCAGEAEIAIaA+Akjrq48poogQQAggBBACCIGdiQDS+jtTLogrhABCACGAEEAIqI8A0vrqY4ooIgQQAggBhABCYGcigHz4d6ZcEFcIAYQAQgAhgBBQHwE011cfU0QRIYAQQAggBBACOxMBpPV3plwQVwgBhABCACGAEFAfAaT11ccUUUQIIAQQAggBhMDORABp/Z0pF8QVQgAhgBBACCAE1EcAaX31MUUUEQIIAYQAQgAhsDMRQFp/Z8oFcYUQQAggBBACCAH1EUBaX31MEUWEAEIAIYAQQAjsTASQ1t+ZckFcIQQQAggBhABCQH0EkNZXH1NEESGAEEAIIAQQAjsTAaT1d6ZcEFcIAYQAQgAhgBBQHwGk9dXHFFFECCAEEAIIAYTAzkQAaf2dKRfEFUIAIYAQQAggBNRHAGl99TFFFBECCAGEAEIAIbAzEUBaf2fKBXGFEEAIIAQQAggB9RH4f54tzwiVjt+DAAAAAElFTkSuQmCC;" vertex="1" parent="wDoNbvHxdQ1cLdOLflLE-3">
          <mxGeometry width="309" height="127.42" as="geometry" />
        </mxCell>
        <UserObject label="https://www.softwareideas.net/erd-relation-arrows" link="https://www.softwareideas.net/erd-relation-arrows" id="wDoNbvHxdQ1cLdOLflLE-2">
          <mxCell style="text;whiteSpace=wrap;html=1;" vertex="1" parent="wDoNbvHxdQ1cLdOLflLE-3">
            <mxGeometry y="127.41999999999996" width="300" height="40" as="geometry" />
          </mxCell>
        </UserObject>
      </root>
    </mxGraphModel>
  </diagram>
</mxfile>
